<svg width="1227" height="266" viewBox="0 0 1227 266" fill="none" xmlns="http://www.w3.org/2000/svg">
<circle cx="84" cy="109" r="25" fill="#8F88DE" fill-opacity="0.2"/>
<circle cx="698" cy="185" r="25" fill="#8F88DE" fill-opacity="0.2"/>
<circle cx="25" cy="150" r="25" fill="#8F88DE" fill-opacity="0.2"/>
<circle cx="1202" cy="91" r="25" fill="#8F88DE" fill-opacity="0.2"/>
<circle cx="774" cy="241" r="25" fill="#8F88DE" fill-opacity="0.2"/>
<circle cx="1103" cy="175" r="25" fill="#8F88DE" fill-opacity="0.2"/>
<circle cx="1099" cy="50" r="25" fill="#8F88DE" fill-opacity="0.2"/>
<circle cx="971" cy="175" r="25" fill="#8F88DE" fill-opacity="0.2"/>
<circle cx="574" cy="216" r="25" fill="#8F88DE" fill-opacity="0.2"/>
<circle cx="1030" cy="109" r="25" fill="#8F88DE" fill-opacity="0.2"/>
<circle cx="265" cy="100" r="25" fill="#8F88DE" fill-opacity="0.2"/>
<circle cx="830" cy="166" r="25" fill="#8F88DE" fill-opacity="0.2"/>
<circle cx="902" cy="109" r="25" fill="#8F88DE" fill-opacity="0.2"/>
<circle cx="946" cy="50" r="25" fill="#8F88DE" fill-opacity="0.2"/>
<circle cx="799" cy="100" r="25" fill="#8F88DE" fill-opacity="0.2"/>
<circle cx="849" cy="50" r="25" fill="#8F88DE" fill-opacity="0.2"/>
<circle cx="549" cy="25" r="25" fill="#8F88DE" fill-opacity="0.2"/>
<circle cx="524" cy="141" r="25" fill="#8F88DE" fill-opacity="0.2"/>
<circle cx="696" cy="109" r="25" fill="#8F88DE" fill-opacity="0.2"/>
<circle cx="599" cy="134" r="25" fill="#8F88DE" fill-opacity="0.2"/>
<circle cx="746" cy="50" r="25" fill="#8F88DE" fill-opacity="0.2"/>
<circle cx="646" cy="50" r="25" fill="#8F88DE" fill-opacity="0.2"/>
<circle cx="546" cy="75" r="25" fill="#8F88DE" fill-opacity="0.2"/>
<circle cx="446" cy="25" r="25" fill="#8F88DE" fill-opacity="0.2"/>
<circle cx="165" cy="191" r="25" fill="#8F88DE" fill-opacity="0.2"/>
<circle cx="190" cy="50" r="25" fill="#8F88DE" fill-opacity="0.2"/>
<circle cx="315" cy="210" r="25" fill="#8F88DE" fill-opacity="0.2"/>
<circle cx="446" cy="125" r="25" fill="#8F88DE" fill-opacity="0.2"/>
<circle cx="442" cy="235" r="25" fill="#8F88DE" fill-opacity="0.2"/>
<circle cx="368" cy="75" r="25" fill="#8F88DE" fill-opacity="0.2"/>
<circle cx="343" cy="150" r="25" fill="#8F88DE" fill-opacity="0.2"/>
<circle cx="265" cy="50" r="25" fill="#8F88DE" fill-opacity="0.2"/>
<circle cx="112" cy="50" r="25" fill="#8F88DE" fill-opacity="0.2"/>
<circle cx="162" cy="100" r="25" fill="#8F88DE" fill-opacity="0.2"/>
<circle cx="240" cy="191" r="25" fill="#8F88DE" fill-opacity="0.2"/>
<circle cx="112" cy="166" r="25" fill="#8F88DE" fill-opacity="0.2"/>
</svg>
