<svg width="689" height="497" viewBox="0 0 689 497" fill="none" xmlns="http://www.w3.org/2000/svg">
<g filter="url(#filter0_d_82_341)">
<path d="M237.021 292.18C224.693 279.721 224.725 259.45 236.998 246.912L322.101 159.971C322.105 159.967 322.109 159.963 322.113 159.958C334.38 147.305 354.432 147.343 366.77 159.948L451.873 246.889C451.877 246.894 451.882 246.898 451.886 246.903C464.228 259.392 464.022 279.635 451.918 292.135C439.652 304.8 419.591 304.767 407.248 292.158L376.038 260.272V391.339C376.038 408.989 362.086 423.429 344.5 423.429C326.915 423.429 312.965 408.992 312.962 391.344L237.021 292.18ZM237.021 292.18C249.325 304.617 269.36 304.83 281.656 292.147M237.021 292.18L281.656 292.147M281.656 292.147C281.66 292.143 281.664 292.139 281.668 292.135L312.867 260.262L312.962 391.339L281.656 292.147ZM108.392 188.38L112.518 186.897L112.359 182.516C112.252 179.563 112.15 176.737 112.15 173.929C112.15 81.0252 185.771 6 276.4 6C337.203 6 390.285 39.7206 418.761 90.1327L421.98 95.831L427.378 92.1304C442.594 81.6992 460.998 75.5714 480.7 75.5714C533.661 75.5714 576.85 119.507 576.85 173.929C576.85 186.442 574.542 198.345 570.416 209.451L567.981 216.004L574.827 217.417C634.147 229.662 679 283.38 679 347.857C679 421.52 620.595 481 548.8 481H157.225C76.066 481 10 413.693 10 330.464C10 264.742 51.1739 208.944 108.392 188.38Z" stroke="#29C665" stroke-width="12" shape-rendering="crispEdges"/>
</g>
<defs>
<filter id="filter0_d_82_341" x="0" y="0" width="689" height="497" filterUnits="userSpaceOnUse" color-interpolation-filters="sRGB">
<feFlood flood-opacity="0" result="BackgroundImageFix"/>
<feColorMatrix in="SourceAlpha" type="matrix" values="0 0 0 0 0 0 0 0 0 0 0 0 0 0 0 0 0 0 127 0" result="hardAlpha"/>
<feOffset dy="6"/>
<feGaussianBlur stdDeviation="2"/>
<feComposite in2="hardAlpha" operator="out"/>
<feColorMatrix type="matrix" values="0 0 0 0 0 0 0 0 0 0 0 0 0 0 0 0 0 0 0.25 0"/>
<feBlend mode="normal" in2="BackgroundImageFix" result="effect1_dropShadow_82_341"/>
<feBlend mode="normal" in="SourceGraphic" in2="effect1_dropShadow_82_341" result="shape"/>
</filter>
</defs>
</svg>
