<svg width="562" height="583" viewBox="0 0 562 583" fill="none" xmlns="http://www.w3.org/2000/svg">
<path d="M280.885 199.333V291.5M280.885 383.667H281.18M547 291.5C547 444.208 427.909 568 281 568C220.813 568 15.0213 568 15.0213 568C15.0213 568 61.104 452.979 42.6614 414.413C24.9558 377.387 15 335.654 15 291.5C15 138.793 134.092 15 281 15C427.909 15 547 138.793 547 291.5Z" stroke="#29C665" stroke-width="30" stroke-linecap="round" stroke-linejoin="round"/>
<ellipse cx="280.5" cy="315" rx="115.5" ry="163" fill="white"/>
<path d="M389.011 376.419L358.844 342.685C358.844 324.03 306.929 351.32 290.844 351.32M252.375 453H188.3C180.144 453 176.066 453 172.951 451.159C170.211 449.539 167.983 446.957 166.587 443.779C165 440.166 165 435.437 165 425.978V396.998C165 386.264 165 380.895 165.699 376.419C168.945 355.625 182.976 339.353 200.905 335.588C202.025 335.354 203.208 335.187 204.548 335.068C207.825 334.778 209.464 334.633 211.653 334.822C213.928 335.019 215.2 335.279 217.395 335.997C219.508 336.688 223.312 338.688 230.922 342.685C241.904 348.454 254.098 351.667 266.938 351.667C269.39 351.667 271.817 351.55 274.219 351.32M332.469 453H376.156C382.941 453 386.334 453 389.011 451.715C392.578 450.001 395.414 446.712 396.892 442.574C398 439.47 398 435.535 398 427.667C398 419.798 398 415.863 396.892 412.759C395.414 408.621 392.578 405.333 389.011 403.619C386.334 402.333 382.941 402.333 376.156 402.333H332.469C325.684 402.333 322.291 402.333 319.614 403.619C316.047 405.333 313.211 408.621 311.733 412.759C310.625 415.863 310.625 419.798 310.625 427.667C310.625 435.535 310.625 439.47 311.733 442.574C313.211 446.712 316.047 450.001 319.614 451.715C322.291 453 325.684 453 332.469 453ZM325.188 216.556C325.188 253.865 299.108 284.111 266.938 284.111C234.767 284.111 208.688 253.865 208.688 216.556C208.688 179.246 234.767 149 266.938 149C299.108 149 325.188 179.246 325.188 216.556Z" stroke="#29C665" stroke-width="30" stroke-linecap="round" stroke-linejoin="round"/>
</svg>
