<svg width="52" height="85" viewBox="0 0 52 85" fill="none" xmlns="http://www.w3.org/2000/svg">
<g filter="url(#filter0_d_63_11)">
<path d="M33 51C33 65.3594 57.5833 77 43.5 77C29.4167 77 18 65.3594 18 51C18 36.6406 29.4167 25 43.5 25C57.5833 25 33 36.6406 33 51Z" fill="url(#paint0_linear_63_11)"/>
<path d="M22.8179 28.0393C25.1121 13.8644 2.70445 -1.55434 16.6068 0.69574C30.5092 2.94582 39.9194 16.2609 37.6252 30.4359C35.331 44.6108 22.2011 54.2778 8.29876 52.0278C-5.60359 49.7777 20.5237 42.2143 22.8179 28.0393Z" fill="url(#paint1_linear_63_11)"/>
</g>
<defs>
<filter id="filter0_d_63_11" x="0.244629" y="0.475708" width="51.6099" height="84.5243" filterUnits="userSpaceOnUse" color-interpolation-filters="sRGB">
<feFlood flood-opacity="0" result="BackgroundImageFix"/>
<feColorMatrix in="SourceAlpha" type="matrix" values="0 0 0 0 0 0 0 0 0 0 0 0 0 0 0 0 0 0 127 0" result="hardAlpha"/>
<feOffset dy="4"/>
<feGaussianBlur stdDeviation="2"/>
<feComposite in2="hardAlpha" operator="out"/>
<feColorMatrix type="matrix" values="0 0 0 0 0 0 0 0 0 0 0 0 0 0 0 0 0 0 0.25 0"/>
<feBlend mode="normal" in2="BackgroundImageFix" result="effect1_dropShadow_63_11"/>
<feBlend mode="normal" in="SourceGraphic" in2="effect1_dropShadow_63_11" result="shape"/>
</filter>
<linearGradient id="paint0_linear_63_11" x1="32.9273" y1="25" x2="32.9273" y2="77" gradientUnits="userSpaceOnUse">
<stop stop-color="#4A6581"/>
<stop offset="1" stop-color="#344D55"/>
</linearGradient>
<linearGradient id="paint1_linear_63_11" x1="27.0437" y1="2.38494" x2="18.7357" y2="53.717" gradientUnits="userSpaceOnUse">
<stop stop-color="#191D30"/>
<stop offset="0.50846" stop-color="#218AEA"/>
<stop offset="1" stop-color="#344D55"/>
</linearGradient>
</defs>
</svg>
