<svg width="1019" height="520" viewBox="0 0 1019 520" fill="none" xmlns="http://www.w3.org/2000/svg">
<rect width="1019" height="520" fill="#FFFEFE"/>
<g filter="url(#filter0_d_1048_199)">
<path d="M59.9645 245.466C60.0781 242.625 59.2486 240.432 57.4759 238.886C55.7259 237.341 53.0781 236.568 49.5327 236.568C47.1236 236.568 45.0327 236.909 43.2599 237.591C41.4872 238.25 40.0668 239.17 38.9986 240.352C37.9531 241.511 37.3054 242.852 37.0554 244.375C36.8054 245.625 36.8849 246.716 37.294 247.648C37.7259 248.58 38.3963 249.386 39.3054 250.068C40.2372 250.727 41.3395 251.307 42.6122 251.807C43.8849 252.284 45.2372 252.693 46.669 253.034L52.669 254.534C55.6009 255.216 58.2372 256.125 60.5781 257.261C62.9418 258.398 64.919 259.795 66.5099 261.455C68.1236 263.114 69.2599 265.068 69.919 267.318C70.5781 269.568 70.669 272.148 70.1918 275.057C69.4645 279.33 67.7713 283.034 65.1122 286.17C62.4531 289.284 58.9645 291.705 54.6463 293.432C50.3281 295.136 45.3281 295.989 39.6463 295.989C34.0099 295.989 29.2486 295.125 25.3622 293.398C21.4759 291.67 18.6463 289.114 16.8736 285.727C15.1236 282.318 14.6009 278.102 15.3054 273.08H29.5895C29.3395 275.42 29.6804 277.375 30.6122 278.943C31.5668 280.489 32.9872 281.659 34.8736 282.455C36.7599 283.227 38.9759 283.614 41.5213 283.614C44.044 283.614 46.2827 283.25 48.2372 282.523C50.2145 281.795 51.8168 280.784 53.044 279.489C54.2713 278.193 55.0213 276.705 55.294 275.023C55.5668 273.455 55.3281 272.136 54.5781 271.068C53.8281 270 52.6236 269.091 50.9645 268.341C49.3281 267.568 47.294 266.886 44.8622 266.295L37.5668 264.386C31.9304 262.955 27.669 260.716 24.7827 257.67C21.8963 254.625 20.8622 250.523 21.6804 245.364C22.4077 241.136 24.169 237.443 26.9645 234.284C29.7827 231.102 33.3281 228.636 37.6009 226.886C41.8963 225.114 46.5895 224.227 51.6804 224.227C56.8622 224.227 61.2372 225.125 64.8054 226.92C68.3736 228.693 70.9759 231.17 72.6122 234.352C74.2486 237.534 74.7486 241.239 74.1122 245.466H59.9645ZM100.268 296.023C94.9276 296.023 90.5071 294.886 87.0071 292.614C83.5071 290.318 81.0412 287.136 79.6094 283.068C78.2003 278.977 77.9389 274.216 78.8253 268.784C79.6889 263.42 81.4844 258.727 84.2116 254.705C86.9389 250.682 90.4048 247.557 94.6094 245.33C98.8139 243.08 103.553 241.955 108.825 241.955C114.143 241.955 118.553 243.102 122.053 245.398C125.553 247.67 128.018 250.852 129.45 254.943C130.882 259.034 131.155 263.795 130.268 269.227C129.382 274.568 127.564 279.25 124.814 283.273C122.064 287.295 118.598 290.432 114.416 292.682C110.234 294.909 105.518 296.023 100.268 296.023ZM101.7 284.773C104.155 284.773 106.325 284.08 108.212 282.693C110.121 281.284 111.7 279.375 112.95 276.966C114.223 274.534 115.109 271.784 115.609 268.716C116.109 265.693 116.143 263.011 115.712 260.67C115.28 258.307 114.371 256.443 112.984 255.08C111.621 253.716 109.746 253.034 107.359 253.034C104.905 253.034 102.723 253.739 100.814 255.148C98.9048 256.534 97.3253 258.443 96.0753 260.875C94.8253 263.307 93.9503 266.068 93.4503 269.159C92.973 272.159 92.9389 274.841 93.348 277.205C93.7571 279.545 94.6548 281.398 96.0412 282.761C97.4276 284.102 99.3139 284.773 101.7 284.773ZM172.337 242.636L170.53 253.545H138.212L140.018 242.636H172.337ZM138.655 295L148.03 238.852C148.643 235.057 149.893 231.909 151.78 229.409C153.689 226.909 156.041 225.034 158.837 223.784C161.655 222.534 164.7 221.909 167.973 221.909C170.2 221.909 172.212 222.08 174.007 222.42C175.825 222.761 177.143 223.068 177.962 223.341L173.632 234.25C173.087 234.068 172.416 233.898 171.621 233.739C170.825 233.58 169.984 233.5 169.098 233.5C166.984 233.5 165.428 234 164.428 235C163.45 235.977 162.791 237.352 162.45 239.125L153.143 295H138.655ZM209.027 242.636L207.22 253.545H175.652L177.493 242.636H209.027ZM186.697 230.091H201.22L193.107 278.909C192.879 280.25 192.913 281.295 193.209 282.045C193.504 282.773 193.993 283.284 194.675 283.58C195.379 283.875 196.22 284.023 197.197 284.023C197.879 284.023 198.572 283.966 199.277 283.852C199.982 283.716 200.516 283.614 200.879 283.545L201.425 294.352C200.607 294.602 199.504 294.875 198.118 295.17C196.754 295.466 195.141 295.648 193.277 295.716C189.732 295.852 186.732 295.386 184.277 294.318C181.822 293.227 180.061 291.557 178.993 289.307C177.925 287.057 177.697 284.227 178.311 280.818L186.697 230.091ZM220.089 295L214.567 242.636H229.26L231.51 277.818H231.987L246.305 242.636H260.726L263.453 277.614H263.896L277.737 242.636H292.396L269.453 295H254.078L250.533 262.068H249.885L235.43 295H220.089ZM306.212 295.989C302.893 295.989 300.018 295.409 297.587 294.25C295.178 293.068 293.405 291.318 292.268 289C291.132 286.682 290.848 283.807 291.416 280.375C291.916 277.466 292.859 275.034 294.246 273.08C295.655 271.102 297.371 269.511 299.393 268.307C301.416 267.102 303.655 266.182 306.109 265.545C308.587 264.909 311.143 264.477 313.78 264.25C316.825 263.932 319.303 263.625 321.212 263.33C323.143 263.034 324.587 262.614 325.541 262.068C326.496 261.5 327.075 260.659 327.28 259.545V259.341C327.621 257.205 327.223 255.545 326.087 254.364C324.973 253.159 323.189 252.557 320.734 252.557C318.143 252.557 315.939 253.125 314.121 254.261C312.325 255.398 311.041 256.841 310.268 258.591L297.041 257.5C298.223 254.318 300.007 251.568 302.393 249.25C304.803 246.909 307.7 245.114 311.087 243.864C314.473 242.591 318.268 241.955 322.473 241.955C325.382 241.955 328.098 242.295 330.621 242.977C333.166 243.659 335.359 244.716 337.2 246.148C339.064 247.58 340.405 249.42 341.223 251.67C342.064 253.898 342.234 256.568 341.734 259.682L335.837 295H322.064L323.291 287.739H322.882C321.768 289.375 320.405 290.818 318.791 292.068C317.178 293.295 315.325 294.261 313.234 294.966C311.143 295.648 308.803 295.989 306.212 295.989ZM312.041 285.966C314.155 285.966 316.098 285.545 317.871 284.705C319.666 283.841 321.143 282.682 322.303 281.227C323.484 279.773 324.234 278.125 324.553 276.284L325.439 270.727C324.984 271.023 324.325 271.284 323.462 271.511C322.621 271.739 321.7 271.955 320.7 272.159C319.723 272.341 318.734 272.511 317.734 272.67C316.734 272.807 315.837 272.943 315.041 273.08C313.291 273.33 311.723 273.727 310.337 274.273C308.95 274.818 307.825 275.557 306.962 276.489C306.098 277.398 305.564 278.534 305.359 279.898C305.041 281.875 305.507 283.386 306.757 284.432C308.03 285.455 309.791 285.966 312.041 285.966ZM347.104 295L355.831 242.636H369.911L368.376 251.773H368.922C370.422 248.523 372.433 246.068 374.956 244.409C377.501 242.727 380.24 241.886 383.172 241.886C383.899 241.886 384.661 241.932 385.456 242.023C386.274 242.091 387.001 242.205 387.638 242.364L385.456 255.284C384.82 255.057 383.911 254.875 382.729 254.739C381.57 254.58 380.467 254.5 379.422 254.5C377.308 254.5 375.342 254.966 373.524 255.898C371.706 256.807 370.172 258.08 368.922 259.716C367.695 261.352 366.888 263.239 366.501 265.375L361.626 295H347.104ZM407.675 296.023C402.311 296.023 397.868 294.932 394.345 292.75C390.822 290.545 388.345 287.432 386.913 283.409C385.504 279.364 385.266 274.58 386.197 269.057C387.107 263.67 388.936 258.943 391.686 254.875C394.459 250.807 397.936 247.636 402.118 245.364C406.3 243.091 410.959 241.955 416.095 241.955C419.55 241.955 422.675 242.511 425.47 243.625C428.288 244.716 430.629 246.375 432.493 248.602C434.357 250.807 435.629 253.568 436.311 256.886C437.016 260.205 437.004 264.091 436.277 268.545L435.629 272.534H391.447L392.845 263.534H423.391C423.732 261.443 423.595 259.591 422.982 257.977C422.368 256.364 421.345 255.102 419.913 254.193C418.482 253.261 416.72 252.795 414.629 252.795C412.493 252.795 410.493 253.318 408.629 254.364C406.766 255.409 405.197 256.784 403.925 258.489C402.675 260.17 401.868 262 401.504 263.977L399.902 272.909C399.447 275.659 399.538 277.943 400.175 279.761C400.834 281.58 401.97 282.943 403.584 283.852C405.197 284.739 407.243 285.182 409.72 285.182C411.334 285.182 412.845 284.955 414.254 284.5C415.686 284.045 416.959 283.375 418.072 282.489C419.186 281.58 420.095 280.455 420.8 279.114L434.061 280C432.834 283.227 430.97 286.045 428.47 288.455C425.97 290.841 422.959 292.705 419.436 294.045C415.936 295.364 412.016 296.023 407.675 296.023ZM481.405 295L479.598 306.011H433.78L435.553 295H481.405ZM510.689 296.023C505.303 296.023 500.871 294.886 497.393 292.614C493.939 290.318 491.518 287.136 490.132 283.068C488.768 279 488.53 274.318 489.416 269.023C490.28 263.659 492.087 258.955 494.837 254.909C497.587 250.841 501.075 247.67 505.303 245.398C509.553 243.102 514.325 241.955 519.621 241.955C524.189 241.955 528.053 242.784 531.212 244.443C534.371 246.102 536.689 248.432 538.166 251.432C539.643 254.432 540.143 257.955 539.666 262H525.996C526.018 259.409 525.348 257.307 523.984 255.693C522.621 254.08 520.621 253.273 517.984 253.273C515.712 253.273 513.621 253.886 511.712 255.114C509.825 256.318 508.223 258.08 506.905 260.398C505.609 262.716 504.7 265.523 504.178 268.818C503.632 272.159 503.621 275 504.143 277.341C504.666 279.682 505.666 281.466 507.143 282.693C508.621 283.92 510.484 284.534 512.734 284.534C514.416 284.534 515.973 284.193 517.405 283.511C518.859 282.83 520.132 281.841 521.223 280.545C522.314 279.227 523.155 277.648 523.746 275.807H537.45C536.518 279.83 534.825 283.352 532.371 286.375C529.939 289.398 526.882 291.761 523.2 293.466C519.518 295.17 515.348 296.023 510.689 296.023ZM543.51 295L552.237 242.636H566.76L558.033 295H543.51ZM560.999 235.818C558.839 235.818 557.055 235.102 555.646 233.67C554.26 232.216 553.692 230.489 553.942 228.489C554.192 226.443 555.169 224.716 556.874 223.307C558.578 221.875 560.51 221.159 562.669 221.159C564.828 221.159 566.589 221.875 567.953 223.307C569.317 224.716 569.885 226.443 569.658 228.489C569.43 230.489 568.464 232.216 566.76 233.67C565.078 235.102 563.158 235.818 560.999 235.818ZM606.246 242.636L604.439 253.545H572.871L574.712 242.636H606.246ZM583.916 230.091H598.439L590.325 278.909C590.098 280.25 590.132 281.295 590.428 282.045C590.723 282.773 591.212 283.284 591.893 283.58C592.598 283.875 593.439 284.023 594.416 284.023C595.098 284.023 595.791 283.966 596.496 283.852C597.2 283.716 597.734 283.614 598.098 283.545L598.643 294.352C597.825 294.602 596.723 294.875 595.337 295.17C593.973 295.466 592.359 295.648 590.496 295.716C586.95 295.852 583.95 295.386 581.496 294.318C579.041 293.227 577.28 291.557 576.212 289.307C575.143 287.057 574.916 284.227 575.53 280.818L583.916 230.091ZM612.74 314.636C610.876 314.636 609.172 314.489 607.626 314.193C606.081 313.92 604.808 313.568 603.808 313.136L608.922 302.295C610.536 302.818 612.001 303.091 613.32 303.114C614.661 303.136 615.888 302.795 617.001 302.091C618.115 301.386 619.138 300.227 620.07 298.614L621.365 296.398L611.547 242.636H626.274L630.706 281.159H631.251L648.604 242.636H664.524L634.558 300.659C633.081 303.5 631.331 305.966 629.308 308.057C627.308 310.148 624.933 311.761 622.183 312.898C619.456 314.057 616.308 314.636 612.74 314.636Z" fill="#374D54"/>
</g>
<rect x="755.394" y="117" width="44" height="415.15" transform="rotate(21.5357 755.394 117)" fill="#D9D9D9"/>
<defs>
<filter id="filter0_d_1048_199" x="10.2485" y="221.159" width="658.275" height="101.477" filterUnits="userSpaceOnUse" color-interpolation-filters="sRGB">
<feFlood flood-opacity="0" result="BackgroundImageFix"/>
<feColorMatrix in="SourceAlpha" type="matrix" values="0 0 0 0 0 0 0 0 0 0 0 0 0 0 0 0 0 0 127 0" result="hardAlpha"/>
<feOffset dy="4"/>
<feGaussianBlur stdDeviation="2"/>
<feComposite in2="hardAlpha" operator="out"/>
<feColorMatrix type="matrix" values="0 0 0 0 0 0 0 0 0 0 0 0 0 0 0 0 0 0 0.25 0"/>
<feBlend mode="normal" in2="BackgroundImageFix" result="effect1_dropShadow_1048_199"/>
<feBlend mode="normal" in="SourceGraphic" in2="effect1_dropShadow_1048_199" result="shape"/>
</filter>
</defs>
</svg>
