<svg width="228" height="66" viewBox="0 0 228 66" fill="none" xmlns="http://www.w3.org/2000/svg">
<g filter="url(#filter0_d_1065_9)">
<circle cx="31.5" cy="30.5" r="27.5" fill="#2D4036"/>
</g>
<g filter="url(#filter1_d_1065_9)">
<path d="M43.3072 7.66735C45.2229 4.28986 50.0895 4.28985 52.0053 7.66733L67.6696 35.2831C69.5602 38.6163 67.1526 42.75 63.3205 42.75H31.992C28.1599 42.75 25.7523 38.6163 27.6429 35.2831L43.3072 7.66735Z" fill="#2D4036"/>
</g>
<path d="M103.192 44H95C95.0427 43.168 95.1387 42.656 95.288 42.464C95.5653 42.1013 95.9387 41.8987 96.408 41.856L97.432 41.792H97.496L93.272 35.616L89.4 41.728H89.432L92.088 41.92C92.216 43.3067 91.736 44 90.648 44H83.608V43.744C83.608 42.5707 84.0773 41.9413 85.016 41.856L86.168 41.792L91.896 33.568L85.656 24.352L83.352 24.16C83.288 24.032 83.2987 23.744 83.384 23.296C83.576 22.4853 84.0453 22.08 84.792 22.08H92.888C92.8453 22.912 92.7493 23.424 92.6 23.616C92.3227 23.9787 91.9493 24.1813 91.48 24.224L90.456 24.288H90.424L94.744 30.656L98.872 24.352L96.248 24.16C96.12 22.7733 96.6 22.08 97.688 22.08H104.696V22.336C104.696 23.5093 104.227 24.1387 103.288 24.224L102.136 24.288L96.12 32.704L102.264 41.728L104.632 41.92C104.76 43.3067 104.28 44 103.192 44ZM116.295 31.52C115.697 30.3893 114.844 29.824 113.735 29.824C112.625 29.824 111.761 30.3787 111.143 31.488C110.545 32.5973 110.247 34.112 110.247 36.032C110.247 37.9307 110.545 39.4133 111.143 40.48C111.761 41.5253 112.625 42.048 113.735 42.048C114.844 42.048 115.697 41.536 116.295 40.512C116.913 39.4667 117.223 37.9947 117.223 36.096C117.223 34.176 116.913 32.6507 116.295 31.52ZM106.183 36.192C106.183 33.4613 106.855 31.3067 108.199 29.728C109.564 28.1493 111.452 27.36 113.863 27.36C116.273 27.36 118.108 28.1173 119.367 29.632C120.647 31.1467 121.287 33.248 121.287 35.936C121.287 38.6027 120.604 40.6933 119.239 42.208C117.873 43.7227 115.964 44.48 113.51 44.48C111.079 44.48 109.244 43.776 108.007 42.368C106.791 40.96 106.183 38.9013 106.183 36.192ZM125.734 27.84V26.976C125.734 25.184 126.3 23.6907 127.43 22.496C128.561 21.28 130.044 20.6613 131.878 20.64C134.268 20.5973 135.462 21.3227 135.462 22.816C135.462 23.5413 135.228 24.0747 134.758 24.416C134.289 24.7573 133.681 24.928 132.934 24.928C132.934 23.5627 132.412 22.88 131.366 22.88C130.193 22.88 129.606 24.2027 129.606 26.848V27.84H133.734C133.841 29.3333 133.34 30.08 132.23 30.08H129.606V41.728H129.638L132.87 41.92C132.934 42.048 132.924 42.336 132.838 42.784C132.646 43.5947 132.177 44 131.43 44H123.366V43.744C123.366 42.5707 123.836 41.9413 124.774 41.856L125.702 41.792L125.734 30.08H123.43C123.43 28.5867 123.953 27.84 124.998 27.84H125.734ZM141.656 30.08V38.944C141.656 40.672 142.211 41.536 143.32 41.536C144.131 41.536 144.803 41.4293 145.336 41.216C145.891 41.0027 146.477 40.64 147.096 40.128C147.203 40.128 147.341 40.2667 147.512 40.544C147.683 40.8213 147.768 41.12 147.768 41.44C147.768 42.272 147.181 42.9867 146.008 43.584C144.835 44.1813 143.693 44.48 142.584 44.48C141.475 44.48 140.6 44.32 139.96 44C139.32 43.7013 138.84 43.2533 138.52 42.656C138.008 41.6747 137.752 40.3733 137.752 38.752V30.08H135.096C135.096 28.5867 135.619 27.84 136.664 27.84H137.752V23.744L141.656 23.328V27.84H147.416C147.459 28.16 147.427 28.5227 147.32 28.928C147.128 29.696 146.637 30.08 145.848 30.08H141.656ZM166.909 27.84H171.517C171.517 29.2053 171.133 29.92 170.365 29.984L169.885 30.048L164.445 44H162.301L159.453 35.52L156.253 44H154.109L149.597 30.112L148.125 29.92C148.104 29.3653 148.2 28.8853 148.413 28.48C148.626 28.0533 148.989 27.84 149.501 27.84H155.837C155.794 28.6293 155.698 29.12 155.549 29.312C155.229 29.7173 154.856 29.9413 154.429 29.984L153.885 30.048L156.157 37.92L159.101 29.408L161.693 29.376L164.189 37.504L166.749 30.08L165.469 29.92C165.341 28.5333 165.821 27.84 166.909 27.84ZM187.883 42.56C187.883 43.84 187.051 44.48 185.387 44.48C183.723 44.48 182.646 43.9253 182.155 42.816C180.811 43.9253 179.329 44.48 177.707 44.48C176.086 44.48 174.806 44.0853 173.867 43.296C172.95 42.4853 172.491 41.3867 172.491 40C172.491 38.592 173.035 37.44 174.123 36.544C175.211 35.648 176.929 35.2 179.275 35.2C180.193 35.2 181.067 35.264 181.899 35.392V33.984C181.899 32.512 181.654 31.4667 181.163 30.848C180.694 30.2293 180.043 29.92 179.211 29.92C178.379 29.92 177.707 30.1867 177.195 30.72C176.705 31.2533 176.459 31.9787 176.459 32.896C175.606 32.9813 174.891 32.8533 174.315 32.512C173.761 32.1493 173.483 31.6053 173.483 30.88C173.483 29.856 174.017 29.0133 175.083 28.352C176.15 27.6907 177.526 27.36 179.211 27.36C183.606 27.36 185.803 29.4933 185.803 33.76V42.304L187.883 42.56ZM181.899 37.792C181.131 37.5147 180.321 37.376 179.467 37.376C178.635 37.376 177.942 37.5787 177.387 37.984C176.833 38.368 176.555 38.9227 176.555 39.648C176.555 41.1413 177.323 41.888 178.859 41.888C179.947 41.888 180.961 41.5787 181.899 40.96V37.792ZM195.355 30.176C195.867 29.4933 196.592 28.8533 197.531 28.256C198.491 27.6587 199.312 27.36 199.995 27.36C200.699 27.36 201.285 27.584 201.755 28.032C202.224 28.48 202.459 29.2267 202.459 30.272C202.459 31.296 202.107 32.1173 201.403 32.736C201.04 33.0133 200.432 33.0987 199.579 32.992C199.579 32.288 199.515 31.7547 199.387 31.392C199.259 31.008 199.12 30.784 198.971 30.72C198.821 30.6347 198.619 30.592 198.363 30.592C197.296 30.592 196.336 31.2853 195.483 32.672V41.728L198.075 41.92C198.203 43.3067 197.723 44 196.635 44H189.243C189.243 44 189.243 43.9147 189.243 43.744C189.243 42.5707 189.712 41.9413 190.651 41.856L191.579 41.792V30.336L190.171 30.176C189.509 30.112 189.179 29.472 189.179 28.256L194.971 27.52L195.259 30.176H195.355ZM207.715 36.16V36.512C207.715 38.24 208.025 39.5307 208.643 40.384C209.283 41.216 210.371 41.632 211.907 41.632C213.465 41.632 214.99 41.0453 216.483 39.872C216.91 40.192 217.123 40.6933 217.123 41.376C217.123 42.0373 216.526 42.72 215.331 43.424C214.158 44.128 212.686 44.48 210.915 44.48C208.611 44.48 206.819 43.808 205.539 42.464C204.281 41.0987 203.651 39.04 203.651 36.288C203.651 33.5147 204.334 31.3387 205.699 29.76C207.086 28.16 208.985 27.36 211.395 27.36C213.443 27.36 214.969 28 215.971 29.28C216.995 30.56 217.486 32.2453 217.443 34.336V36.16H207.715ZM211.043 29.92C209.294 29.92 208.238 31.264 207.875 33.952H213.699C213.657 32.5013 213.411 31.4667 212.963 30.848C212.515 30.2293 211.875 29.92 211.043 29.92Z" fill="white"/>
<rect x="12" y="20.3281" width="9" height="35" rx="4.5" transform="rotate(-28.7457 12 20.3281)" fill="#3FF030"/>
<rect x="14.2422" y="46.7617" width="9" height="35" rx="4.5" transform="rotate(-133.921 14.2422 46.7617)" fill="#3FF030"/>
<g filter="url(#filter2_d_1065_9)">
<path d="M43.6666 37.7918C44.0732 38.1655 44.7058 38.1388 45.0795 37.7322L51.1698 31.1058C51.5435 30.6992 51.5168 30.0666 51.1102 29.6929C50.7036 29.3192 50.071 29.3458 49.6972 29.7525L44.2837 35.6426L38.3936 30.229C37.9869 29.8553 37.3543 29.8819 36.9806 30.2886C36.6069 30.6952 36.6336 31.3278 37.0402 31.7015L43.6666 37.7918ZM42.665 20.9874L43.3441 37.0976L45.3424 37.0134L44.6632 20.9032L42.665 20.9874Z" fill="white"/>
</g>
<defs>
<filter id="filter0_d_1065_9" x="0" y="3" width="63" height="63" filterUnits="userSpaceOnUse" color-interpolation-filters="sRGB">
<feFlood flood-opacity="0" result="BackgroundImageFix"/>
<feColorMatrix in="SourceAlpha" type="matrix" values="0 0 0 0 0 0 0 0 0 0 0 0 0 0 0 0 0 0 127 0" result="hardAlpha"/>
<feOffset dy="4"/>
<feGaussianBlur stdDeviation="2"/>
<feComposite in2="hardAlpha" operator="out"/>
<feColorMatrix type="matrix" values="0 0 0 0 0 0 0 0 0 0 0 0 0 0 0 0 0 0 0.25 0"/>
<feBlend mode="normal" in2="BackgroundImageFix" result="effect1_dropShadow_1065_9"/>
<feBlend mode="normal" in="SourceGraphic" in2="effect1_dropShadow_1065_9" result="shape"/>
</filter>
<filter id="filter1_d_1065_9" x="22.9844" y="5.13281" width="49.3438" height="45.6172" filterUnits="userSpaceOnUse" color-interpolation-filters="sRGB">
<feFlood flood-opacity="0" result="BackgroundImageFix"/>
<feColorMatrix in="SourceAlpha" type="matrix" values="0 0 0 0 0 0 0 0 0 0 0 0 0 0 0 0 0 0 127 0" result="hardAlpha"/>
<feOffset dy="4"/>
<feGaussianBlur stdDeviation="2"/>
<feComposite in2="hardAlpha" operator="out"/>
<feColorMatrix type="matrix" values="0 0 0 0 0 0 0 0 0 0 0 0 0 0 0 0 0 0 0.25 0"/>
<feBlend mode="normal" in2="BackgroundImageFix" result="effect1_dropShadow_1065_9"/>
<feBlend mode="normal" in="SourceGraphic" in2="effect1_dropShadow_1065_9" result="shape"/>
</filter>
<filter id="filter2_d_1065_9" x="32.7188" y="20.9023" width="22.7109" height="25.1523" filterUnits="userSpaceOnUse" color-interpolation-filters="sRGB">
<feFlood flood-opacity="0" result="BackgroundImageFix"/>
<feColorMatrix in="SourceAlpha" type="matrix" values="0 0 0 0 0 0 0 0 0 0 0 0 0 0 0 0 0 0 127 0" result="hardAlpha"/>
<feOffset dy="4"/>
<feGaussianBlur stdDeviation="2"/>
<feComposite in2="hardAlpha" operator="out"/>
<feColorMatrix type="matrix" values="0 0 0 0 0 0 0 0 0 0 0 0 0 0 0 0 0 0 1 0"/>
<feBlend mode="normal" in2="BackgroundImageFix" result="effect1_dropShadow_1065_9"/>
<feBlend mode="normal" in="SourceGraphic" in2="effect1_dropShadow_1065_9" result="shape"/>
</filter>
</defs>
</svg>
