<svg width="923" height="286" viewBox="0 0 923 286" fill="none" xmlns="http://www.w3.org/2000/svg">
<ellipse cx="163.5" cy="117" rx="107.5" ry="117" fill="#2D4036"/>
<path d="M161.894 90.7554C163.861 88.7064 167.139 88.7064 169.106 90.7554L300.7 227.787C303.752 230.965 301.499 236.25 297.093 236.25H33.9066C29.5007 236.25 27.2484 230.965 30.3002 227.787L161.894 90.7554Z" fill="#2D4036"/>
<path d="M310.256 165C304.784 165 300.512 163.896 297.44 161.688C294.4 159.48 292.496 156.072 291.728 151.464C291.6 150.056 291.888 149 292.592 148.296C293.296 147.592 294.32 147.24 295.664 147.24C297.008 147.24 297.984 147.56 298.592 148.2C299.232 148.84 299.664 149.832 299.888 151.176C300.368 153.384 301.392 154.904 302.96 155.736C304.56 156.536 306.992 156.936 310.256 156.936H324.08C328.208 156.936 331.008 156.2 332.48 154.728C333.984 153.224 334.736 150.44 334.736 146.376C334.736 142.248 333.968 139.432 332.432 137.928C330.896 136.392 328.112 135.624 324.08 135.624H312.176C306.128 135.624 301.632 134.152 298.688 131.208C295.776 128.232 294.32 123.72 294.32 117.672C294.32 111.656 295.76 107.192 298.64 104.28C301.552 101.368 306.032 99.912 312.08 99.912H323.504C328.592 99.912 332.576 100.952 335.456 103.032C338.368 105.112 340.208 108.296 340.976 112.584C341.168 113.96 340.912 115.016 340.208 115.752C339.504 116.456 338.448 116.808 337.04 116.808C335.76 116.808 334.8 116.472 334.16 115.8C333.52 115.128 333.104 114.152 332.912 112.872C332.4 110.984 331.424 109.704 329.984 109.032C328.544 108.328 326.384 107.976 323.504 107.976H312.08C308.24 107.976 305.664 108.664 304.352 110.04C303.04 111.384 302.384 113.928 302.384 117.672C302.384 121.448 303.056 124.04 304.4 125.448C305.744 126.856 308.336 127.56 312.176 127.56H324.08C330.384 127.56 335.072 129.096 338.144 132.168C341.248 135.24 342.8 139.976 342.8 146.376C342.8 152.744 341.264 157.448 338.192 160.488C335.12 163.496 330.416 165 324.08 165H310.256ZM376.965 165C370.597 165 365.861 163.464 362.757 160.392C359.685 157.32 358.149 152.616 358.149 146.28V135.144C358.149 128.712 359.685 123.976 362.757 120.936C365.861 117.864 370.597 116.328 376.965 116.328H384.837C391.237 116.328 395.973 117.864 399.045 120.936C402.117 124.008 403.653 128.744 403.653 135.144V146.184C403.653 152.552 402.117 157.288 399.045 160.392C395.973 163.464 391.237 165 384.837 165H376.965ZM366.213 146.28C366.213 150.408 366.965 153.224 368.469 154.728C369.973 156.2 372.805 156.936 376.965 156.936H384.837C389.029 156.936 391.861 156.184 393.333 154.68C394.837 153.176 395.589 150.344 395.589 146.184V135.144C395.589 130.952 394.837 128.12 393.333 126.648C391.861 125.144 389.029 124.392 384.837 124.392H376.965C374.181 124.392 372.005 124.712 370.437 125.352C368.901 125.96 367.813 127.048 367.173 128.616C366.533 130.152 366.213 132.328 366.213 135.144V146.28ZM427.153 165C424.465 165 423.121 163.656 423.121 160.968V124.392H419.569C416.881 124.392 415.537 123.048 415.537 120.36C415.537 117.672 416.881 116.328 419.569 116.328H423.121V115.944C423.121 109.64 424.641 104.984 427.681 101.976C430.721 98.936 435.377 97.416 441.649 97.416C443.953 97.416 445.105 98.76 445.105 101.448C445.105 104.136 443.953 105.48 441.649 105.48C437.617 105.48 434.865 106.2 433.393 107.64C431.921 109.08 431.185 111.848 431.185 115.944V116.328H441.073C443.761 116.328 445.105 117.672 445.105 120.36C445.105 123.048 443.761 124.392 441.073 124.392H431.185V160.968C431.185 163.656 429.841 165 427.153 165ZM478.872 165C472.536 165 467.864 163.496 464.856 160.488C461.848 157.48 460.344 152.84 460.344 146.568V124.392H455.64C452.952 124.392 451.608 123.048 451.608 120.36C451.608 117.672 452.952 116.328 455.64 116.328H460.344V109.32C460.344 106.632 461.688 105.288 464.376 105.288C467.064 105.288 468.408 106.632 468.408 109.32V116.328H479.448C482.136 116.328 483.48 117.672 483.48 120.36C483.48 123.048 482.136 124.392 479.448 124.392H468.408V146.568C468.408 150.632 469.144 153.384 470.616 154.824C472.088 156.232 474.84 156.936 478.872 156.936C480.12 156.936 481.096 157.256 481.8 157.896C482.536 158.536 482.904 159.56 482.904 160.968C482.904 163.656 481.56 165 478.872 165ZM509.683 165C507.571 165 506.163 163.912 505.459 161.736L492.115 121.608C491.283 119.176 492.147 117.512 494.707 116.616C497.235 115.752 498.931 116.616 499.795 119.208L510.643 151.512H510.019L520.243 119.208C520.947 117.096 522.483 116.04 524.851 116.04C527.091 116.04 528.531 117.16 529.171 119.4L538.723 151.176H538.339L549.427 119.112C550.355 116.52 552.083 115.688 554.611 116.616C557.139 117.512 557.939 119.24 557.011 121.8L542.419 161.736C541.619 163.912 540.115 165 537.906 165C535.635 165 534.163 163.88 533.491 161.64L523.603 128.616H524.659L513.906 161.736C513.587 162.792 513.059 163.608 512.323 164.184C511.587 164.728 510.707 165 509.683 165ZM584.679 165C579.303 165 575.303 163.688 572.679 161.064C570.055 158.44 568.743 154.44 568.743 149.064C568.743 143.688 570.039 139.688 572.631 137.064C575.255 134.44 579.271 133.128 584.679 133.128H604.983C604.791 129.768 603.911 127.48 602.343 126.264C600.775 125.016 598.087 124.392 594.279 124.392H588.711C585.511 124.392 583.127 124.616 581.559 125.064C579.991 125.48 578.887 126.248 578.247 127.368C577.671 128.712 577.079 129.64 576.471 130.152C575.863 130.664 574.951 130.92 573.735 130.92C572.391 130.92 571.335 130.552 570.567 129.816C569.799 129.048 569.575 128.04 569.895 126.792C570.855 123.176 572.855 120.536 575.895 118.872C578.967 117.176 583.239 116.328 588.711 116.328H594.279C600.679 116.328 605.415 117.864 608.487 120.936C611.559 124.008 613.095 128.744 613.095 135.144V160.968C613.095 163.656 611.751 165 609.063 165C606.375 165 605.031 163.656 605.031 160.968V158.808C601.607 162.936 596.615 165 590.055 165H584.679ZM584.679 156.936H590.055C592.423 156.936 594.647 156.728 596.727 156.312C598.807 155.864 600.583 155.064 602.055 153.912C603.559 152.76 604.551 151.112 605.031 148.968V141.192H584.679C581.511 141.192 579.399 141.72 578.343 142.776C577.319 143.832 576.807 145.928 576.807 149.064C576.807 152.232 577.319 154.344 578.343 155.4C579.399 156.424 581.511 156.936 584.679 156.936ZM636.172 165C633.484 165 632.14 163.656 632.14 160.968V120.36C632.14 117.672 633.484 116.328 636.172 116.328C638.86 116.328 640.204 117.672 640.204 120.36V124.104C642.092 121.544 644.492 119.608 647.404 118.296C650.348 116.984 653.708 116.328 657.484 116.328C660.172 116.328 661.516 117.672 661.516 120.36C661.516 123.048 660.172 124.392 657.484 124.392C651.948 124.392 647.724 125.416 644.812 127.464C641.9 129.512 640.364 132.216 640.204 135.576V160.968C640.204 163.656 638.86 165 636.172 165ZM676.994 143.976V146.28C676.994 150.408 677.746 153.224 679.25 154.728C680.754 156.2 683.586 156.936 687.746 156.936H695.618C698.882 156.936 701.298 156.632 702.866 156.024C704.434 155.416 705.474 154.344 705.986 152.808C706.338 151.592 706.818 150.664 707.426 150.024C708.066 149.384 709.026 149.064 710.306 149.064C711.65 149.064 712.674 149.416 713.378 150.12C714.082 150.824 714.306 151.848 714.05 153.192C713.346 157.16 711.458 160.12 708.386 162.072C705.314 164.024 701.058 165 695.618 165H687.746C681.378 165 676.642 163.464 673.538 160.392C670.466 157.32 668.93 152.616 668.93 146.28V135.144C668.93 128.648 670.466 123.88 673.538 120.84C676.642 117.768 681.378 116.264 687.746 116.328H695.618C702.018 116.328 706.754 117.864 709.826 120.936C712.898 123.976 714.434 128.712 714.434 135.144V139.944C714.434 142.632 713.09 143.976 710.402 143.976H676.994ZM687.746 124.392C683.586 124.328 680.754 125.048 679.25 126.552C677.746 128.056 676.994 130.92 676.994 135.144V135.912H706.37V135.144C706.37 130.952 705.618 128.12 704.114 126.648C702.642 125.144 699.81 124.392 695.618 124.392H687.746ZM751.278 165C743.95 165 738.526 163.256 735.006 159.768C731.518 156.248 729.774 150.824 729.774 143.496V121.416C729.774 114.024 731.518 108.584 735.006 105.096C738.494 101.576 743.886 99.848 751.182 99.912H762.798C768.814 99.912 773.406 101.16 776.574 103.656C779.742 106.12 781.582 110.024 782.094 115.368C782.286 116.712 782.03 117.736 781.326 118.44C780.622 119.144 779.598 119.496 778.254 119.496C775.822 119.496 774.414 118.152 774.03 115.464C773.71 112.52 772.686 110.536 770.958 109.512C769.262 108.488 766.542 107.976 762.798 107.976H751.182C747.79 107.944 745.118 108.328 743.166 109.128C741.246 109.928 739.87 111.32 739.038 113.304C738.238 115.256 737.838 117.96 737.838 121.416V143.496C737.838 146.92 738.238 149.608 739.038 151.56C739.87 153.512 741.262 154.904 743.214 155.736C745.166 156.536 747.854 156.936 751.278 156.936H762.798C766.542 156.936 769.262 156.424 770.958 155.4C772.686 154.344 773.71 152.36 774.03 149.448C774.414 146.76 775.822 145.416 778.254 145.416C779.598 145.416 780.622 145.768 781.326 146.472C782.03 147.176 782.286 148.2 782.094 149.544C781.582 154.92 779.742 158.84 776.574 161.304C773.406 163.768 768.814 165 762.798 165H751.278ZM801.609 108.456C798.57 108.456 797.05 106.92 797.05 103.848V101.016C797.05 98.008 798.57 96.504 801.609 96.504H804.394C807.306 96.504 808.762 98.008 808.762 101.016V103.848C808.762 106.92 807.306 108.456 804.394 108.456H801.609ZM802.954 165C800.266 165 798.922 163.656 798.922 160.968V120.36C798.922 117.672 800.266 116.328 802.954 116.328C805.642 116.328 806.986 117.672 806.986 120.36V160.968C806.986 163.656 805.642 165 802.954 165ZM847.497 165C841.161 165 836.489 163.496 833.481 160.488C830.473 157.48 828.969 152.84 828.969 146.568V124.392H824.265C821.577 124.392 820.233 123.048 820.233 120.36C820.233 117.672 821.577 116.328 824.265 116.328H828.969V109.32C828.969 106.632 830.313 105.288 833.001 105.288C835.689 105.288 837.033 106.632 837.033 109.32V116.328H848.073C850.761 116.328 852.105 117.672 852.105 120.36C852.105 123.048 850.761 124.392 848.073 124.392H837.033V146.568C837.033 150.632 837.769 153.384 839.241 154.824C840.713 156.232 843.465 156.936 847.497 156.936C848.745 156.936 849.721 157.256 850.425 157.896C851.161 158.536 851.529 159.56 851.529 160.968C851.529 163.656 850.185 165 847.497 165ZM880.036 184.2C875.396 184.2 871.924 183.032 869.62 180.696C867.348 178.392 866.212 174.92 866.212 170.28C866.212 167.592 867.556 166.248 870.244 166.248C872.932 166.248 874.276 167.592 874.276 170.28C874.276 172.68 874.628 174.248 875.332 174.984C876.068 175.752 877.636 176.136 880.036 176.136H898.66C901.028 176.136 902.58 175.752 903.316 174.984C904.052 174.248 904.42 172.68 904.42 170.28V158.088C902.5 160.968 900.26 162.84 897.7 163.704C895.172 164.568 892.42 165 889.444 165H884.74C878.404 165 873.732 163.496 870.724 160.488C867.716 157.48 866.212 152.84 866.212 146.568V120.36C866.212 117.672 867.556 116.328 870.244 116.328C872.932 116.328 874.276 117.672 874.276 120.36V146.568C874.276 150.6 874.996 153.336 876.436 154.776C877.908 156.216 880.676 156.936 884.74 156.936H889.444C894.692 156.936 898.5 156.088 900.868 154.392C903.236 152.664 904.42 150.056 904.42 146.568V120.36C904.42 117.672 905.764 116.328 908.452 116.328C911.14 116.328 912.484 117.672 912.484 120.36V170.28C912.484 174.92 911.332 178.392 909.028 180.696C906.724 183.032 903.268 184.2 898.66 184.2H880.036Z" fill="black"/>
<g filter="url(#filter0_d_1056_23)">
<path d="M164.525 126.475C165.892 127.842 168.108 127.842 169.475 126.475L191.749 104.201C193.116 102.834 193.116 100.618 191.749 99.2513C190.382 97.8844 188.166 97.8844 186.799 99.2513L167 119.05L147.201 99.2513C145.834 97.8844 143.618 97.8844 142.251 99.2513C140.884 100.618 140.884 102.834 142.251 104.201L164.525 126.475ZM163.5 78V124H170.5V78H163.5Z" fill="#FDFFFD"/>
</g>
<path d="M125 111L134 132.432L196.157 135.432L207 111V142H125V111Z" fill="#C5F3C1"/>
<line x1="76" y1="185.5" x2="252" y2="185.5" stroke="white"/>
<defs>
<filter id="filter0_d_1056_23" x="141.227" y="78" width="59.5469" height="61.5" filterUnits="userSpaceOnUse" color-interpolation-filters="sRGB">
<feFlood flood-opacity="0" result="BackgroundImageFix"/>
<feColorMatrix in="SourceAlpha" type="matrix" values="0 0 0 0 0 0 0 0 0 0 0 0 0 0 0 0 0 0 127 0" result="hardAlpha"/>
<feOffset dx="4" dy="8"/>
<feGaussianBlur stdDeviation="2"/>
<feComposite in2="hardAlpha" operator="out"/>
<feColorMatrix type="matrix" values="0 0 0 0 0.176471 0 0 0 0 0.25098 0 0 0 0 0.211765 0 0 0 1 0"/>
<feBlend mode="normal" in2="BackgroundImageFix" result="effect1_dropShadow_1056_23"/>
<feBlend mode="normal" in="SourceGraphic" in2="effect1_dropShadow_1056_23" result="shape"/>
</filter>
</defs>
</svg>
