<svg width="224" height="70" viewBox="0 0 224 70" fill="none" xmlns="http://www.w3.org/2000/svg">
<g filter="url(#filter0_d_1057_35)">
<circle cx="27.5" cy="30.5" r="27.5" fill="#2D4036"/>
</g>
<g filter="url(#filter1_d_1057_35)">
<path d="M39.3072 7.66735C41.2229 4.28986 46.0895 4.28985 48.0053 7.66733L63.6696 35.2831C65.5602 38.6163 63.1526 42.75 59.3205 42.75H27.992C24.1599 42.75 21.7523 38.6163 23.6429 35.2831L39.3072 7.66735Z" fill="#2D4036"/>
</g>
<path d="M99.192 44H91C91.0427 43.168 91.1387 42.656 91.288 42.464C91.5653 42.1013 91.9387 41.8987 92.408 41.856L93.432 41.792H93.496L89.272 35.616L85.4 41.728H85.432L88.088 41.92C88.216 43.3067 87.736 44 86.648 44H79.608V43.744C79.608 42.5707 80.0773 41.9413 81.016 41.856L82.168 41.792L87.896 33.568L81.656 24.352L79.352 24.16C79.288 24.032 79.2987 23.744 79.384 23.296C79.576 22.4853 80.0453 22.08 80.792 22.08H88.888C88.8453 22.912 88.7493 23.424 88.6 23.616C88.3227 23.9787 87.9493 24.1813 87.48 24.224L86.456 24.288H86.424L90.744 30.656L94.872 24.352L92.248 24.16C92.12 22.7733 92.6 22.08 93.688 22.08H100.696V22.336C100.696 23.5093 100.227 24.1387 99.288 24.224L98.136 24.288L92.12 32.704L98.264 41.728L100.632 41.92C100.76 43.3067 100.28 44 99.192 44ZM112.295 31.52C111.697 30.3893 110.844 29.824 109.735 29.824C108.625 29.824 107.761 30.3787 107.143 31.488C106.545 32.5973 106.247 34.112 106.247 36.032C106.247 37.9307 106.545 39.4133 107.143 40.48C107.761 41.5253 108.625 42.048 109.735 42.048C110.844 42.048 111.697 41.536 112.295 40.512C112.913 39.4667 113.223 37.9947 113.223 36.096C113.223 34.176 112.913 32.6507 112.295 31.52ZM102.183 36.192C102.183 33.4613 102.855 31.3067 104.199 29.728C105.564 28.1493 107.452 27.36 109.863 27.36C112.273 27.36 114.108 28.1173 115.367 29.632C116.647 31.1467 117.287 33.248 117.287 35.936C117.287 38.6027 116.604 40.6933 115.239 42.208C113.873 43.7227 111.964 44.48 109.51 44.48C107.079 44.48 105.244 43.776 104.007 42.368C102.791 40.96 102.183 38.9013 102.183 36.192ZM121.734 27.84V26.976C121.734 25.184 122.3 23.6907 123.43 22.496C124.561 21.28 126.044 20.6613 127.878 20.64C130.268 20.5973 131.462 21.3227 131.462 22.816C131.462 23.5413 131.228 24.0747 130.758 24.416C130.289 24.7573 129.681 24.928 128.934 24.928C128.934 23.5627 128.412 22.88 127.366 22.88C126.193 22.88 125.606 24.2027 125.606 26.848V27.84H129.734C129.841 29.3333 129.34 30.08 128.23 30.08H125.606V41.728H125.638L128.87 41.92C128.934 42.048 128.924 42.336 128.838 42.784C128.646 43.5947 128.177 44 127.43 44H119.366V43.744C119.366 42.5707 119.836 41.9413 120.774 41.856L121.702 41.792L121.734 30.08H119.43C119.43 28.5867 119.953 27.84 120.998 27.84H121.734ZM137.656 30.08V38.944C137.656 40.672 138.211 41.536 139.32 41.536C140.131 41.536 140.803 41.4293 141.336 41.216C141.891 41.0027 142.477 40.64 143.096 40.128C143.203 40.128 143.341 40.2667 143.512 40.544C143.683 40.8213 143.768 41.12 143.768 41.44C143.768 42.272 143.181 42.9867 142.008 43.584C140.835 44.1813 139.693 44.48 138.584 44.48C137.475 44.48 136.6 44.32 135.96 44C135.32 43.7013 134.84 43.2533 134.52 42.656C134.008 41.6747 133.752 40.3733 133.752 38.752V30.08H131.096C131.096 28.5867 131.619 27.84 132.664 27.84H133.752V23.744L137.656 23.328V27.84H143.416C143.459 28.16 143.427 28.5227 143.32 28.928C143.128 29.696 142.637 30.08 141.848 30.08H137.656ZM162.909 27.84H167.517C167.517 29.2053 167.133 29.92 166.365 29.984L165.885 30.048L160.445 44H158.301L155.453 35.52L152.253 44H150.109L145.597 30.112L144.125 29.92C144.104 29.3653 144.2 28.8853 144.413 28.48C144.626 28.0533 144.989 27.84 145.501 27.84H151.837C151.794 28.6293 151.698 29.12 151.549 29.312C151.229 29.7173 150.856 29.9413 150.429 29.984L149.885 30.048L152.157 37.92L155.101 29.408L157.693 29.376L160.189 37.504L162.749 30.08L161.469 29.92C161.341 28.5333 161.821 27.84 162.909 27.84ZM183.883 42.56C183.883 43.84 183.051 44.48 181.387 44.48C179.723 44.48 178.646 43.9253 178.155 42.816C176.811 43.9253 175.329 44.48 173.707 44.48C172.086 44.48 170.806 44.0853 169.867 43.296C168.95 42.4853 168.491 41.3867 168.491 40C168.491 38.592 169.035 37.44 170.123 36.544C171.211 35.648 172.929 35.2 175.275 35.2C176.193 35.2 177.067 35.264 177.899 35.392V33.984C177.899 32.512 177.654 31.4667 177.163 30.848C176.694 30.2293 176.043 29.92 175.211 29.92C174.379 29.92 173.707 30.1867 173.195 30.72C172.705 31.2533 172.459 31.9787 172.459 32.896C171.606 32.9813 170.891 32.8533 170.315 32.512C169.761 32.1493 169.483 31.6053 169.483 30.88C169.483 29.856 170.017 29.0133 171.083 28.352C172.15 27.6907 173.526 27.36 175.211 27.36C179.606 27.36 181.803 29.4933 181.803 33.76V42.304L183.883 42.56ZM177.899 37.792C177.131 37.5147 176.321 37.376 175.467 37.376C174.635 37.376 173.942 37.5787 173.387 37.984C172.833 38.368 172.555 38.9227 172.555 39.648C172.555 41.1413 173.323 41.888 174.859 41.888C175.947 41.888 176.961 41.5787 177.899 40.96V37.792ZM191.355 30.176C191.867 29.4933 192.592 28.8533 193.531 28.256C194.491 27.6587 195.312 27.36 195.995 27.36C196.699 27.36 197.285 27.584 197.755 28.032C198.224 28.48 198.459 29.2267 198.459 30.272C198.459 31.296 198.107 32.1173 197.403 32.736C197.04 33.0133 196.432 33.0987 195.579 32.992C195.579 32.288 195.515 31.7547 195.387 31.392C195.259 31.008 195.12 30.784 194.971 30.72C194.821 30.6347 194.619 30.592 194.363 30.592C193.296 30.592 192.336 31.2853 191.483 32.672V41.728L194.075 41.92C194.203 43.3067 193.723 44 192.635 44H185.243C185.243 44 185.243 43.9147 185.243 43.744C185.243 42.5707 185.712 41.9413 186.651 41.856L187.579 41.792V30.336L186.171 30.176C185.509 30.112 185.179 29.472 185.179 28.256L190.971 27.52L191.259 30.176H191.355ZM203.715 36.16V36.512C203.715 38.24 204.025 39.5307 204.643 40.384C205.283 41.216 206.371 41.632 207.907 41.632C209.465 41.632 210.99 41.0453 212.483 39.872C212.91 40.192 213.123 40.6933 213.123 41.376C213.123 42.0373 212.526 42.72 211.331 43.424C210.158 44.128 208.686 44.48 206.915 44.48C204.611 44.48 202.819 43.808 201.539 42.464C200.281 41.0987 199.651 39.04 199.651 36.288C199.651 33.5147 200.334 31.3387 201.699 29.76C203.086 28.16 204.985 27.36 207.395 27.36C209.443 27.36 210.969 28 211.971 29.28C212.995 30.56 213.486 32.2453 213.443 34.336V36.16H203.715ZM207.043 29.92C205.294 29.92 204.238 31.264 203.875 33.952H209.699C209.657 32.5013 209.411 31.4667 208.963 30.848C208.515 30.2293 207.875 29.92 207.043 29.92Z" fill="black"/>
<g filter="url(#filter2_d_1057_35)">
<rect x="8" y="20.3281" width="9" height="35" rx="4.5" transform="rotate(-28.7457 8 20.3281)" fill="#3FF030"/>
</g>
<g filter="url(#filter3_d_1057_35)">
<rect x="10.2422" y="46.7617" width="9" height="35" rx="4.5" transform="rotate(-133.921 10.2422 46.7617)" fill="#3FF030"/>
</g>
<g filter="url(#filter4_d_1057_35)">
<path d="M39.6666 41.7918C40.0732 42.1655 40.7058 42.1388 41.0795 41.7322L47.1698 35.1058C47.5435 34.6992 47.5168 34.0666 47.1102 33.6929C46.7036 33.3192 46.071 33.3458 45.6972 33.7525L40.2837 39.6426L34.3936 34.229C33.9869 33.8553 33.3543 33.8819 32.9806 34.2886C32.6069 34.6952 32.6336 35.3278 33.0402 35.7015L39.6666 41.7918ZM38.665 24.9874L39.3441 41.0976L41.3424 41.0134L40.6632 24.9032L38.665 24.9874Z" fill="white"/>
</g>
<defs>
<filter id="filter0_d_1057_35" x="0" y="3" width="63" height="67" filterUnits="userSpaceOnUse" color-interpolation-filters="sRGB">
<feFlood flood-opacity="0" result="BackgroundImageFix"/>
<feColorMatrix in="SourceAlpha" type="matrix" values="0 0 0 0 0 0 0 0 0 0 0 0 0 0 0 0 0 0 127 0" result="hardAlpha"/>
<feOffset dx="4" dy="8"/>
<feGaussianBlur stdDeviation="2"/>
<feComposite in2="hardAlpha" operator="out"/>
<feColorMatrix type="matrix" values="0 0 0 0 0 0 0 0 0 0 0 0 0 0 0 0 0 0 0.25 0"/>
<feBlend mode="normal" in2="BackgroundImageFix" result="effect1_dropShadow_1057_35"/>
<feBlend mode="normal" in="SourceGraphic" in2="effect1_dropShadow_1057_35" result="shape"/>
</filter>
<filter id="filter1_d_1057_35" x="22.9844" y="5.13281" width="49.3438" height="49.6172" filterUnits="userSpaceOnUse" color-interpolation-filters="sRGB">
<feFlood flood-opacity="0" result="BackgroundImageFix"/>
<feColorMatrix in="SourceAlpha" type="matrix" values="0 0 0 0 0 0 0 0 0 0 0 0 0 0 0 0 0 0 127 0" result="hardAlpha"/>
<feOffset dx="4" dy="8"/>
<feGaussianBlur stdDeviation="2"/>
<feComposite in2="hardAlpha" operator="out"/>
<feColorMatrix type="matrix" values="0 0 0 0 0 0 0 0 0 0 0 0 0 0 0 0 0 0 0.25 0"/>
<feBlend mode="normal" in2="BackgroundImageFix" result="effect1_dropShadow_1057_35"/>
<feBlend mode="normal" in="SourceGraphic" in2="effect1_dropShadow_1057_35" result="shape"/>
</filter>
<filter id="filter2_d_1057_35" x="9.60938" y="17.6094" width="29.5078" height="43.7969" filterUnits="userSpaceOnUse" color-interpolation-filters="sRGB">
<feFlood flood-opacity="0" result="BackgroundImageFix"/>
<feColorMatrix in="SourceAlpha" type="matrix" values="0 0 0 0 0 0 0 0 0 0 0 0 0 0 0 0 0 0 127 0" result="hardAlpha"/>
<feOffset dx="4" dy="8"/>
<feGaussianBlur stdDeviation="2"/>
<feComposite in2="hardAlpha" operator="out"/>
<feColorMatrix type="matrix" values="0 0 0 0 0 0 0 0 0 0 0 0 0 0 0 0 0 0 0.25 0"/>
<feBlend mode="normal" in2="BackgroundImageFix" result="effect1_dropShadow_1057_35"/>
<feBlend mode="normal" in="SourceGraphic" in2="effect1_dropShadow_1057_35" result="shape"/>
</filter>
<filter id="filter3_d_1057_35" x="5.85938" y="17.8633" width="35.7266" height="39.0352" filterUnits="userSpaceOnUse" color-interpolation-filters="sRGB">
<feFlood flood-opacity="0" result="BackgroundImageFix"/>
<feColorMatrix in="SourceAlpha" type="matrix" values="0 0 0 0 0 0 0 0 0 0 0 0 0 0 0 0 0 0 127 0" result="hardAlpha"/>
<feOffset dx="4" dy="8"/>
<feGaussianBlur stdDeviation="2"/>
<feComposite in2="hardAlpha" operator="out"/>
<feColorMatrix type="matrix" values="0 0 0 0 0 0 0 0 0 0 0 0 0 0 0 0 0 0 0.25 0"/>
<feBlend mode="normal" in2="BackgroundImageFix" result="effect1_dropShadow_1057_35"/>
<feBlend mode="normal" in="SourceGraphic" in2="effect1_dropShadow_1057_35" result="shape"/>
</filter>
<filter id="filter4_d_1057_35" x="32.7188" y="24.9023" width="22.7109" height="29.1523" filterUnits="userSpaceOnUse" color-interpolation-filters="sRGB">
<feFlood flood-opacity="0" result="BackgroundImageFix"/>
<feColorMatrix in="SourceAlpha" type="matrix" values="0 0 0 0 0 0 0 0 0 0 0 0 0 0 0 0 0 0 127 0" result="hardAlpha"/>
<feOffset dx="4" dy="8"/>
<feGaussianBlur stdDeviation="2"/>
<feComposite in2="hardAlpha" operator="out"/>
<feColorMatrix type="matrix" values="0 0 0 0 0 0 0 0 0 0 0 0 0 0 0 0 0 0 0.25 0"/>
<feBlend mode="normal" in2="BackgroundImageFix" result="effect1_dropShadow_1057_35"/>
<feBlend mode="normal" in="SourceGraphic" in2="effect1_dropShadow_1057_35" result="shape"/>
</filter>
</defs>
</svg>
