<svg width="593" height="570" viewBox="0 0 593 570" fill="none" xmlns="http://www.w3.org/2000/svg">
<path d="M296.5 536C213.603 536 139.681 499.257 91.5738 441.875ZM296.5 34C393.661 34 478.495 84.4758 523.881 159.5ZM34 285C34 205.735 72.4257 135.051 132.438 89.0515ZM559 285C559 373.914 510.651 452.028 437.722 496.618ZM536.031 65.375V159.5H437.594M165.25 419.912H66.8125V514.037M437.594 410.5V504.625H536.031M56.9753 65.375H155.413V159.5" fill="#FE1E1E"/>
<path d="M296.5 536C213.603 536 139.681 499.257 91.5738 441.875M296.5 34C393.661 34 478.495 84.4758 523.881 159.5M34 285C34 205.735 72.4257 135.051 132.438 89.0515M559 285C559 373.914 510.651 452.028 437.722 496.618M536.031 65.375V159.5H437.594M165.25 419.912H66.8125V514.037M437.594 410.5V504.625H536.031M56.9753 65.375H155.413V159.5" stroke="#29C665" stroke-width="66.6667" stroke-linecap="round" stroke-linejoin="round"/>
</svg>
