<svg width="585" height="562" viewBox="0 0 585 562" fill="none" xmlns="http://www.w3.org/2000/svg">
<mask id="path-1-outside-1_85_340" maskUnits="userSpaceOnUse" x="0" y="0" width="585" height="562" fill="black">
<rect fill="white" width="585" height="562"/>
<path d="M292.5 532C209.603 532 135.681 495.257 87.5738 437.875ZM292.5 30C389.661 30 474.495 80.4758 519.881 155.5ZM30 281C30 201.735 68.4257 131.051 128.438 85.0515ZM555 281C555 369.914 506.651 448.028 433.722 492.618ZM532.031 61.375V155.5H433.594M161.25 415.912H62.8125V510.037M433.594 406.5V500.625H532.031M52.9753 61.375H151.413V155.5"/>
</mask>
<path d="M292.5 562C309.069 562 322.5 548.569 322.5 532C322.5 515.431 309.069 502 292.5 502V562ZM110.563 418.601C99.9188 405.904 80.9968 404.241 68.3 414.885C55.6032 425.53 53.9396 444.452 64.5842 457.149L110.563 418.601ZM292.5 0C275.931 0 262.5 13.4315 262.5 30C262.5 46.5685 275.931 60 292.5 60V0ZM494.212 171.028C502.788 185.205 521.233 189.745 535.409 181.169C549.585 172.592 554.125 154.148 545.549 139.972L494.212 171.028ZM0 281C0 297.569 13.4315 311 30 311C46.5685 311 60 297.569 60 281H0ZM146.688 108.862C159.838 98.782 162.327 79.9509 152.248 66.8009C142.168 53.651 123.337 51.162 110.187 61.2415L146.688 108.862ZM585 281C585 264.431 571.569 251 555 251C538.431 251 525 264.431 525 281H585ZM418.072 467.023C403.937 475.666 399.484 494.132 408.127 508.267C416.77 522.403 435.235 526.856 449.371 518.213L418.072 467.023ZM562.031 61.375C562.031 44.8065 548.6 31.375 532.031 31.375C515.463 31.375 502.031 44.8065 502.031 61.375H562.031ZM532.031 155.5V185.5C548.6 185.5 562.031 172.069 562.031 155.5H532.031ZM433.594 125.5C417.025 125.5 403.594 138.931 403.594 155.5C403.594 172.069 417.025 185.5 433.594 185.5V125.5ZM161.25 445.912C177.819 445.912 191.25 432.481 191.25 415.912C191.25 399.344 177.819 385.912 161.25 385.912V445.912ZM62.8125 415.912V385.912C46.244 385.912 32.8125 399.344 32.8125 415.912H62.8125ZM32.8125 510.037C32.8125 526.606 46.244 540.037 62.8125 540.037C79.381 540.037 92.8125 526.606 92.8125 510.037H32.8125ZM463.594 406.5C463.594 389.931 450.162 376.5 433.594 376.5C417.025 376.5 403.594 389.931 403.594 406.5H463.594ZM433.594 500.625H403.594C403.594 517.194 417.025 530.625 433.594 530.625V500.625ZM532.031 530.625C548.6 530.625 562.031 517.194 562.031 500.625C562.031 484.056 548.6 470.625 532.031 470.625V530.625ZM52.9753 31.375C36.4068 31.375 22.9753 44.8065 22.9753 61.375C22.9753 77.9435 36.4068 91.375 52.9753 91.375V31.375ZM151.413 61.375H181.413C181.413 44.8065 167.981 31.375 151.413 31.375V61.375ZM121.413 155.5C121.413 172.069 134.844 185.5 151.413 185.5C167.981 185.5 181.413 172.069 181.413 155.5H121.413ZM292.5 502C218.575 502 153.034 469.26 110.563 418.601L64.5842 457.149C118.327 521.253 200.632 562 292.5 562V502ZM292.5 60C379.167 60 454.263 104.992 494.212 171.028L545.549 139.972C494.726 55.9597 400.155 0 292.5 0V60ZM60 281C60 211.762 93.5137 149.62 146.688 108.862L110.187 61.2415C43.3378 112.482 0 191.708 0 281H60ZM525 281C525 358.624 482.829 427.43 418.072 467.023L449.371 518.213C530.473 468.626 585 381.203 585 281H525ZM502.031 61.375V155.5H562.031V61.375H502.031ZM532.031 125.5H433.594V185.5H532.031V125.5ZM161.25 385.912H62.8125V445.912H161.25V385.912ZM32.8125 415.912V510.037H92.8125V415.912H32.8125ZM403.594 406.5V500.625H463.594V406.5H403.594ZM433.594 530.625H532.031V470.625H433.594V530.625ZM52.9753 91.375H151.413V31.375H52.9753V91.375ZM121.413 61.375V155.5H181.413V61.375H121.413Z" fill="#29C665" mask="url(#path-1-outside-1_85_340)"/>
</svg>
