<svg width="1056" height="504" viewBox="0 0 1056 504" fill="none" xmlns="http://www.w3.org/2000/svg">
<g filter="url(#filter0_d_105_337)">
<path d="M336.998 310.081C336.998 295.134 332.144 275.025 326.947 256.561C322.669 241.36 304.336 217.112 276.7 204.654C267.712 200.603 266.65 200.502 259.113 198.886C259.113 198.886 251.576 198.119 239.014 198.886C224.373 199.78 130.065 211.476 110.886 209.305C55.6137 203.051 60.6385 162.667 100.836 152.285C141.034 141.904 151.084 140.29 188.769 140.29C321.925 140.29 364.632 266.94 359.61 310.081C352.391 372.083 321.925 442.963 213.893 482.411C179.962 494.801 120.935 499.482 88.2747 493.254C44.4389 484.896 40.7174 449.65 55.614 435.116C62.412 428.484 38.0254 464.184 78.2233 482.411C106.776 490.103 213.892 493.254 274.189 441.347C289.52 428.15 301.992 419.867 311.875 401.899C336.998 356.219 336.998 333.38 336.998 310.081Z" fill="url(#paint0_linear_105_337)"/>
<path d="M188.769 155.29C238.569 155.29 274.167 174.41 298.794 199.781C293.857 196.516 288.539 193.538 282.864 190.979C278.337 188.939 275.12 187.573 271.866 186.549C269.068 185.668 266.391 185.099 263.461 184.476C263.065 184.391 262.664 184.306 262.258 184.219L261.452 184.046L260.632 183.963L259.113 198.886C260.632 183.963 260.63 183.963 260.628 183.962L260.624 183.962L260.615 183.961L260.595 183.959L260.547 183.954C260.511 183.951 260.468 183.947 260.417 183.942C260.378 183.938 260.335 183.934 260.287 183.93C260.212 183.923 260.125 183.916 260.027 183.908C259.709 183.881 259.276 183.847 258.733 183.811C257.646 183.739 256.119 183.657 254.191 183.604C250.335 183.497 244.864 183.501 238.1 183.914C233.656 184.185 222.366 185.384 208.381 186.869C198.204 187.95 186.599 189.182 175.168 190.318C161.313 191.696 147.45 192.964 135.914 193.754C123.841 194.58 115.765 194.762 112.572 194.401C86.7636 191.48 85.0639 182.034 85.0399 181.57C84.9535 179.893 87.4779 171.227 104.587 166.809C124.728 161.607 136.52 158.82 147.809 157.252C158.987 155.699 170.068 155.29 188.769 155.29Z" stroke="#2B4033" stroke-width="30"/>
</g>
<g filter="url(#filter1_d_105_337)">
<path d="M27.0017 185.919C27.0017 200.866 31.8563 220.975 37.0532 239.439C41.3315 254.64 59.6645 278.888 87.3004 291.346C96.2882 295.397 97.3498 295.498 104.887 297.114C104.887 297.114 112.424 297.881 124.986 297.114C139.627 296.22 233.935 284.524 253.114 286.695C308.386 292.949 303.361 333.333 263.164 343.715C222.966 354.096 212.916 355.71 175.231 355.71C42.0753 355.71 -0.632441 229.06 4.39042 185.919C11.6092 123.917 42.0753 53.0375 150.107 13.5891C184.038 1.19914 243.065 -3.48156 275.725 2.74603C319.561 11.1044 323.283 46.35 308.386 60.8838C301.588 67.5163 325.975 31.8164 285.777 13.5891C257.224 5.89657 150.108 2.74603 89.8107 54.6525C74.4802 67.8497 62.0079 76.1332 52.1253 94.1015C27.0016 139.781 27.0017 162.62 27.0017 185.919Z" fill="url(#paint1_linear_105_337)"/>
<path d="M175.231 340.71C125.431 340.71 89.8331 321.59 65.2063 296.219C70.1425 299.484 75.4606 302.462 81.1361 305.021C85.663 307.061 88.8804 308.427 92.1342 309.451C94.932 310.332 97.6089 310.901 100.539 311.524C100.935 311.609 101.336 311.694 101.742 311.781L102.548 311.954L103.368 312.037L104.887 297.114C103.368 312.037 103.37 312.037 103.372 312.038L103.376 312.038L103.385 312.039L103.405 312.041L103.453 312.046C103.489 312.049 103.532 312.053 103.583 312.058C103.622 312.062 103.665 312.066 103.713 312.07C103.788 312.077 103.875 312.084 103.973 312.092C104.291 312.119 104.724 312.153 105.267 312.189C106.354 312.261 107.881 312.343 109.809 312.396C113.665 312.503 119.136 312.499 125.9 312.086C130.344 311.815 141.634 310.616 155.619 309.131C165.796 308.05 177.401 306.818 188.832 305.682C202.687 304.304 216.55 303.036 228.086 302.246C240.159 301.42 248.235 301.238 251.428 301.599C277.236 304.52 278.936 313.966 278.96 314.43C279.047 316.107 276.522 324.773 259.413 329.191C239.272 334.393 227.48 337.18 216.191 338.748C205.013 340.301 193.932 340.71 175.231 340.71Z" stroke="black" stroke-width="30"/>
</g>
<path d="M446.625 291.875C446.375 288.375 444.917 285.292 442.25 282.625C439.583 279.875 435.292 276.917 429.375 273.75C422.542 270.417 417.333 266.625 413.75 262.375C410.167 258.042 408.417 252.667 408.5 246.25C408.667 239.917 411.167 234.625 416 230.375C420.833 226.125 427.333 224 435.5 224C439.917 224 443.917 224.333 447.5 225C451.083 225.667 454.625 226.625 458.125 227.875V241C453.375 238.5 449.167 236.833 445.5 236C441.833 235.167 438.667 234.75 436 234.75C433.333 234.75 430.792 235.792 428.375 237.875C425.958 239.875 424.75 242.833 424.75 246.75C424.75 250.25 426.208 253.375 429.125 256.125C432.125 258.792 436.875 261.875 443.375 265.375C449.958 268.875 454.875 272.792 458.125 277.125C461.458 281.375 463.125 286.375 463.125 292.125C463.125 299.208 460.583 305.292 455.5 310.375C450.5 315.458 443.083 318.25 433.25 318.75C429.583 318.917 425.708 318.583 421.625 317.75C417.542 316.833 414.208 315.542 411.625 313.875C409.958 312.875 408.875 311.667 408.375 310.25C407.875 308.833 407.875 307.292 408.375 305.625C409.125 303.958 410.5 302.875 412.5 302.375C414.5 301.792 416.792 302.292 419.375 303.875C421.125 304.708 423.333 305.5 426 306.25C428.667 306.917 430.958 307.208 432.875 307.125C437.542 306.708 441.125 305.125 443.625 302.375C446.125 299.625 447.125 296.125 446.625 291.875ZM466 284.75C466 274.75 468.583 266.583 473.75 260.25C479 253.833 486.583 250.625 496.5 250.625C506.5 250.625 514.125 253.833 519.375 260.25C524.625 266.583 527.25 274.75 527.25 284.75C527.25 294.667 524.625 302.792 519.375 309.125C514.125 315.458 506.5 318.625 496.5 318.625C486.583 318.625 479 315.458 473.75 309.125C468.583 302.792 466 294.667 466 284.75ZM482.375 284.75C482.375 292.917 483.833 298.917 486.75 302.75C489.667 306.5 492.917 308.375 496.5 308.375C500.167 308.375 503.458 306.5 506.375 302.75C509.375 298.917 510.875 292.917 510.875 284.75C510.875 276.5 509.375 270.458 506.375 266.625C503.458 262.792 500.167 260.875 496.5 260.875C492.917 260.875 489.667 262.792 486.75 266.625C483.833 270.458 482.375 276.5 482.375 284.75ZM538.125 262.375H527.625V252.25H538.125V239.375C538.125 234.125 539.75 229.917 543 226.75C546.333 223.5 551.125 221.875 557.375 221.875C564.042 221.875 569 223.5 572.25 226.75C575.5 230 577.125 234.417 577.125 240H561.75C561.667 236.917 561.25 234.75 560.5 233.5C559.833 232.167 558.792 231.5 557.375 231.5C556.208 231.583 555.292 232.292 554.625 233.625C553.958 234.875 553.625 237.208 553.625 240.625V252.25H570.5V262.375H553.625V317.75H538.125V262.375ZM595.25 226.875V252.25H612.125V262.375H595.375V301.125C595.375 304.125 595.875 306.083 596.875 307C597.958 307.917 599.583 308.375 601.75 308.375C602.917 308.375 604.042 308.375 605.125 308.375C606.292 308.292 609 307.708 613.25 306.625V317.125C610.417 318.042 607.667 318.583 605 318.75C602.417 318.917 600.417 319 599 319C594.75 319 591.25 318.542 588.5 317.625C585.75 316.625 583.792 315.208 582.625 313.375C581.292 311.708 580.5 309.625 580.25 307.125C580.083 304.542 580 301.875 580 299.125V262.375H571V252.25H580V242.625L595.25 226.875ZM676.75 318.125H664.5L652.75 279.125L642.125 318.125H629.875L615.875 264.25C615.458 263 615.083 262 614.75 261.25C614.5 260.417 614.125 259.875 613.625 259.625C612.875 259.208 612.167 258.75 611.5 258.25C610.833 257.75 610.5 256.958 610.5 255.875C610.5 253.458 612.208 252.25 615.625 252.25H628.125L636.625 290.25L646 252.875H660.125L670.375 290.5L679.625 252.25H688C689.667 252.25 690.875 252.708 691.625 253.625C692.458 254.542 692.792 255.792 692.625 257.375L676.75 318.125ZM732.875 313.375C731.792 314.208 729.875 315.292 727.125 316.625C724.375 317.958 720.5 318.625 715.5 318.625C709.583 318.625 704.708 316.917 700.875 313.5C697.042 310 695.125 305.542 695.125 300.125C695.125 292.792 698.375 286.917 704.875 282.5C711.458 278.083 719.417 275.875 728.75 275.875H732.75V273.25C732.75 269.417 731.667 266.417 729.5 264.25C727.333 262 724.75 260.875 721.75 260.875C719.083 260.875 716.792 261.583 714.875 263C713.042 264.417 712.125 267.167 712.125 271.25H695.875C695.875 264.667 698.25 259.583 703 256C707.75 252.417 714.125 250.625 722.125 250.625C730.625 250.625 737.083 252.75 741.5 257C746 261.167 748.25 266.792 748.25 273.875V317.75H732.875V313.375ZM732.75 286.5C726 286.333 720.625 287.375 716.625 289.625C712.625 291.875 710.625 294.958 710.625 298.875C710.625 302.208 711.417 304.5 713 305.75C714.583 306.917 716.375 307.5 718.375 307.5C721.875 307.5 725.125 306.208 728.125 303.625C731.208 301.042 732.75 297.917 732.75 294.25V286.5ZM759.875 267.625C759.875 264.958 759.667 263.208 759.25 262.375C758.917 261.458 758.458 260.875 757.875 260.625C756.542 260.292 755.417 259.833 754.5 259.25C753.667 258.583 753.25 257.583 753.25 256.25C753.25 253.583 755.042 252.25 758.625 252.25H769.625C773.292 252.25 775.125 253.75 775.125 256.75V257.75C775.708 257.167 776.333 256.625 777 256.125C780.75 252.875 785.667 251.25 791.75 251.25H798.125V265.25C790.125 263.5 783.708 264.458 778.875 268.125C777.458 269.125 776.208 270.542 775.125 272.375V317.75H759.875V267.625ZM813.25 287.875C813.583 292.875 815.417 297.458 818.75 301.625C822.083 305.708 826.417 307.958 831.75 308.375C833.583 308.542 835.542 308.5 837.625 308.25C839.708 307.917 841.75 307.25 843.75 306.25C846.25 305.083 848.125 304.75 849.375 305.25C850.708 305.667 851.708 306.542 852.375 307.875C852.708 308.958 852.667 310.125 852.25 311.375C851.917 312.542 851.167 313.5 850 314.25C847.75 315.583 844.708 316.708 840.875 317.625C837.125 318.542 832.917 318.875 828.25 318.625C819.5 318.042 812.125 314.625 806.125 308.375C800.125 302.125 797.125 293.5 797.125 282.5C797.125 272.667 799.833 264.917 805.25 259.25C810.667 253.5 818.042 250.625 827.375 250.625C835.375 250.625 841.875 253.25 846.875 258.5C851.875 263.75 854.375 271.75 854.375 282.5V287.875H813.25ZM813.25 277.375H838.75C838.75 271.792 837.5 267.667 835 265C832.583 262.25 829.917 260.875 827 260.875C823.667 260.875 820.583 262.417 817.75 265.5C815 268.583 813.5 272.542 813.25 277.375ZM925.875 311.875C923.875 313.458 920.833 314.917 916.75 316.25C912.75 317.5 908.542 318.292 904.125 318.625C889.625 319.542 878.125 315.333 869.625 306C861.208 296.583 857 284.583 857 270C857 256.583 860.333 245.583 867 237C873.75 228.333 883.792 224 897.125 224C905.708 224 912.875 226.292 918.625 230.875C924.458 235.458 927.375 240.875 927.375 247.125H910.5C910.333 243.208 908.958 240.25 906.375 238.25C903.792 236.167 900.5 235.125 896.5 235.125C890.583 235.125 885.25 238.125 880.5 244.125C875.833 250.042 873.5 257.958 873.5 267.875C873.5 282.792 876.917 293.25 883.75 299.25C890.667 305.167 897.875 307.833 905.375 307.25C908.042 307 910.375 306.542 912.375 305.875C914.458 305.208 916.333 304.5 918 303.75C920.167 302.333 922.208 301.833 924.125 302.25C926.042 302.667 927.333 303.625 928 305.125C928.5 306.292 928.5 307.542 928 308.875C927.583 310.125 926.875 311.125 925.875 311.875ZM951.5 317.75H935.875V267.625C935.875 265.042 935.667 263.292 935.25 262.375C934.833 261.458 934.375 260.875 933.875 260.625C932.375 260.208 931.25 259.708 930.5 259.125C929.75 258.542 929.375 257.667 929.375 256.5C929.375 253.667 931.167 252.25 934.75 252.25H946.125C949.708 252.25 951.5 253.75 951.5 256.75V317.75ZM952 232.875C952 235.542 951.042 237.833 949.125 239.75C947.292 241.583 945.042 242.5 942.375 242.5C939.708 242.5 937.458 241.583 935.625 239.75C933.792 237.833 932.875 235.542 932.875 232.875C932.875 230.208 933.792 227.917 935.625 226C937.458 224 939.708 223 942.375 223C945.042 223 947.292 224 949.125 226C951.042 227.917 952 230.208 952 232.875ZM981 226.875V252.25H997.875V262.375H981.125V301.125C981.125 304.125 981.625 306.083 982.625 307C983.708 307.917 985.333 308.375 987.5 308.375C988.667 308.375 989.792 308.375 990.875 308.375C992.042 308.292 994.75 307.708 999 306.625V317.125C996.167 318.042 993.417 318.583 990.75 318.75C988.167 318.917 986.167 319 984.75 319C980.5 319 977 318.542 974.25 317.625C971.5 316.625 969.542 315.208 968.375 313.375C967.042 311.708 966.25 309.625 966 307.125C965.833 304.542 965.75 301.875 965.75 299.125V262.375H956.75V252.25H965.75V242.625L981 226.875ZM1008.25 338.625C1003.67 337.875 1000.17 335.875 997.75 332.625C995.333 329.458 994.125 324.792 994.125 318.625H1009C1009 321.375 1009.08 323.292 1009.25 324.375C1009.5 325.542 1009.79 326.375 1010.12 326.875C1010.71 327.708 1011.38 328.167 1012.12 328.25C1012.96 328.333 1013.5 328.375 1013.75 328.375C1014.67 328.292 1015.54 327.542 1016.38 326.125C1017.21 324.708 1018.12 322.458 1019.12 319.375L1021.38 312.375L1004.75 269.5C1003.92 266.833 1003.08 264.625 1002.25 262.875C1001.5 261.042 1000.83 260.042 1000.25 259.875C999.083 259.542 998.167 259.083 997.5 258.5C996.75 257.833 996.375 256.958 996.375 255.875C996.375 253.458 998.167 252.25 1001.75 252.25H1015L1028.88 290.375L1041.62 252.25H1050.62C1052.54 252.25 1053.83 252.875 1054.5 254.125C1055.25 255.375 1055.46 256.708 1055.12 258.125L1032.62 322.375C1029.96 330.125 1026.5 335 1022.25 337C1018.08 339.083 1013.42 339.625 1008.25 338.625Z" fill="black"/>
<defs>
<filter id="filter0_d_105_337" x="43.7192" y="140.29" width="320.281" height="363.71" filterUnits="userSpaceOnUse" color-interpolation-filters="sRGB">
<feFlood flood-opacity="0" result="BackgroundImageFix"/>
<feColorMatrix in="SourceAlpha" type="matrix" values="0 0 0 0 0 0 0 0 0 0 0 0 0 0 0 0 0 0 127 0" result="hardAlpha"/>
<feOffset dy="4"/>
<feGaussianBlur stdDeviation="2"/>
<feComposite in2="hardAlpha" operator="out"/>
<feColorMatrix type="matrix" values="0 0 0 0 0 0 0 0 0 0 0 0 0 0 0 0 0 0 0.25 0"/>
<feBlend mode="normal" in2="BackgroundImageFix" result="effect1_dropShadow_105_337"/>
<feBlend mode="normal" in="SourceGraphic" in2="effect1_dropShadow_105_337" result="shape"/>
</filter>
<filter id="filter1_d_105_337" x="0" y="0" width="320.28" height="363.71" filterUnits="userSpaceOnUse" color-interpolation-filters="sRGB">
<feFlood flood-opacity="0" result="BackgroundImageFix"/>
<feColorMatrix in="SourceAlpha" type="matrix" values="0 0 0 0 0 0 0 0 0 0 0 0 0 0 0 0 0 0 127 0" result="hardAlpha"/>
<feOffset dy="4"/>
<feGaussianBlur stdDeviation="2"/>
<feComposite in2="hardAlpha" operator="out"/>
<feColorMatrix type="matrix" values="0 0 0 0 0 0 0 0 0 0 0 0 0 0 0 0 0 0 0.25 0"/>
<feBlend mode="normal" in2="BackgroundImageFix" result="effect1_dropShadow_105_337"/>
<feBlend mode="normal" in="SourceGraphic" in2="effect1_dropShadow_105_337" result="shape"/>
</filter>
<linearGradient id="paint0_linear_105_337" x1="203.86" y1="140.29" x2="203.86" y2="496" gradientUnits="userSpaceOnUse">
<stop stop-color="#29C665"/>
<stop offset="1" stop-color="#146031"/>
</linearGradient>
<linearGradient id="paint1_linear_105_337" x1="160.14" y1="355.71" x2="160.14" y2="0" gradientUnits="userSpaceOnUse">
<stop stop-color="#29C665"/>
<stop offset="0.723364" stop-color="#0C4522"/>
</linearGradient>
</defs>
</svg>
