<svg width="286" height="51" viewBox="0 0 286 51" fill="none" xmlns="http://www.w3.org/2000/svg">
<path d="M65.5142 23.7188C65.5824 22.7557 65.3267 22.0099 64.7472 21.4815C64.1761 20.9531 63.2727 20.6889 62.0369 20.6889C61.2188 20.6889 60.5199 20.7955 59.9403 21.0085C59.3608 21.2131 58.9048 21.5028 58.5724 21.8778C58.2401 22.2443 58.0313 22.6705 57.946 23.1562C57.8693 23.5398 57.8906 23.8807 58.0099 24.179C58.1293 24.4773 58.3381 24.7415 58.6364 24.9716C58.9432 25.2017 59.3224 25.402 59.7741 25.5724C60.2344 25.7429 60.75 25.892 61.321 26.0199L63.4688 26.5312C64.7131 26.8125 65.7912 27.1875 66.7031 27.6562C67.6236 28.1165 68.3693 28.6747 68.9403 29.331C69.5114 29.9787 69.9034 30.7244 70.1165 31.5682C70.3295 32.4119 70.3466 33.358 70.1676 34.4062C69.8949 36.0597 69.2429 37.4787 68.2116 38.6634C67.1889 39.848 65.8509 40.7557 64.1974 41.3864C62.5526 42.017 60.6392 42.3324 58.4574 42.3324C56.2756 42.3324 54.4219 42.0043 52.8963 41.348C51.3793 40.6832 50.2798 39.6818 49.598 38.3438C48.9162 37.0057 48.733 35.3182 49.0483 33.2812H55.0952C55.0014 34.125 55.108 34.8281 55.4148 35.3906C55.7301 35.9531 56.2159 36.3793 56.8722 36.669C57.5284 36.9588 58.321 37.1037 59.25 37.1037C60.1023 37.1037 60.848 36.9886 61.4872 36.7585C62.1349 36.5284 62.6506 36.2088 63.0341 35.7997C63.4261 35.3906 63.6648 34.9219 63.75 34.3935C63.8352 33.9077 63.7543 33.4858 63.5071 33.1278C63.2685 32.7699 62.8594 32.4588 62.2798 32.1946C61.7088 31.9304 60.9588 31.6918 60.0298 31.4787L57.4091 30.8395C55.2443 30.3111 53.6037 29.4673 52.4872 28.3082C51.3793 27.1491 50.9872 25.5767 51.3111 23.5909C51.5838 21.9631 52.2571 20.5398 53.331 19.321C54.4134 18.1023 55.7813 17.1562 57.4347 16.483C59.0966 15.8011 60.9247 15.4602 62.919 15.4602C64.9474 15.4602 66.652 15.8054 68.0327 16.4957C69.4219 17.1776 70.4233 18.1406 71.0369 19.3849C71.6591 20.6207 71.8381 22.0653 71.5739 23.7188H65.5142ZM81.2642 42.3707C79.1932 42.3707 77.4844 41.9446 76.1378 41.0923C74.7997 40.2401 73.858 39.0511 73.3125 37.5256C72.767 36 72.6605 34.2273 72.9929 32.2074C73.3253 30.196 74.0114 28.4318 75.0511 26.9148C76.0909 25.3977 77.4205 24.2173 79.0398 23.3736C80.6591 22.5298 82.4957 22.108 84.5497 22.108C86.6122 22.108 88.3125 22.5341 89.6506 23.3864C90.9972 24.2386 91.9432 25.4276 92.4886 26.9531C93.0426 28.4787 93.1534 30.2557 92.821 32.2841C92.4886 34.2955 91.7983 36.0597 90.75 37.5767C89.7017 39.0852 88.3722 40.2614 86.7614 41.1051C85.1506 41.9489 83.3182 42.3707 81.2642 42.3707ZM81.9673 37.6534C82.7344 37.6534 83.4205 37.4233 84.0256 36.9631C84.6392 36.5028 85.1548 35.8594 85.5724 35.0327C85.9901 34.206 86.2884 33.2472 86.4673 32.1562C86.6463 31.0824 86.6634 30.1406 86.5185 29.331C86.3821 28.5128 86.0923 27.8778 85.6491 27.4261C85.206 26.9659 84.6051 26.7358 83.8466 26.7358C83.0795 26.7358 82.3892 26.9702 81.7756 27.4389C81.1619 27.8991 80.6463 28.5426 80.2287 29.3693C79.8196 30.1875 79.5256 31.1463 79.3466 32.2457C79.1676 33.3196 79.1463 34.2614 79.2827 35.071C79.419 35.8807 79.7131 36.5156 80.1648 36.9759C80.6165 37.4276 81.2173 37.6534 81.9673 37.6534ZM108.859 22.3636L108.079 26.9659H95.4482L96.228 22.3636H108.859ZM95.5632 42L99.0149 21.3665C99.2621 19.8494 99.7521 18.5923 100.485 17.5952C101.218 16.5895 102.134 15.8395 103.234 15.3452C104.333 14.8423 105.543 14.5909 106.864 14.5909C107.742 14.5909 108.556 14.6591 109.306 14.7955C110.056 14.9233 110.602 15.0384 110.942 15.1406L109.217 19.7173C108.987 19.6406 108.714 19.5767 108.398 19.5256C108.092 19.4744 107.789 19.4489 107.491 19.4489C106.766 19.4489 106.242 19.6108 105.918 19.9347C105.594 20.2585 105.381 20.7017 105.279 21.2642L101.815 42H95.5632ZM122.96 22.3636L122.18 26.9659H109.792L110.572 22.3636H122.96ZM113.934 17.6591H120.185L117.168 35.8253C117.109 36.2088 117.117 36.5199 117.194 36.7585C117.279 36.9886 117.433 37.1548 117.654 37.2571C117.884 37.3509 118.165 37.3977 118.498 37.3977C118.728 37.3977 118.984 37.3722 119.265 37.321C119.546 37.2699 119.759 37.2315 119.904 37.206L120.109 41.7188C119.776 41.8125 119.329 41.919 118.766 42.0384C118.212 42.1662 117.565 42.2472 116.823 42.2812C115.323 42.3409 114.083 42.1662 113.103 41.7571C112.131 41.3395 111.445 40.6918 111.045 39.8139C110.653 38.9361 110.576 37.8366 110.815 36.5156L113.934 17.6591ZM126.545 42L124.705 22.3636H130.982L131.531 34.9432H131.697L136.632 22.3636H142.756L143.574 34.8537H143.74L148.406 22.3636H154.683L146.284 42H139.598L138.422 30.5582H138.205L133.244 42H126.545ZM159.404 42.3324C158.159 42.3324 157.086 42.1236 156.182 41.706C155.287 41.2798 154.631 40.6364 154.213 39.7756C153.804 38.9148 153.706 37.8409 153.919 36.554C154.107 35.4631 154.452 34.5469 154.955 33.8054C155.466 33.0554 156.093 32.446 156.834 31.9773C157.584 31.5085 158.419 31.1506 159.34 30.9034C160.26 30.6562 161.223 30.4901 162.229 30.4048C163.354 30.3026 164.266 30.1918 164.965 30.0724C165.672 29.9531 166.201 29.7869 166.55 29.5739C166.9 29.3523 167.113 29.0455 167.189 28.6534V28.5895C167.292 27.9332 167.151 27.4261 166.767 27.0682C166.384 26.7102 165.809 26.5312 165.042 26.5312C164.223 26.5312 163.525 26.7102 162.945 27.0682C162.365 27.4261 161.961 27.9205 161.73 28.5511L156.003 28.3466C156.361 27.1534 156.975 26.0881 157.844 25.1506C158.713 24.2045 159.817 23.4631 161.155 22.9261C162.502 22.3807 164.057 22.108 165.821 22.108C167.066 22.108 168.191 22.2571 169.196 22.5554C170.202 22.8452 171.05 23.2713 171.74 23.8338C172.439 24.3878 172.938 25.0696 173.236 25.8793C173.534 26.6889 173.598 27.6136 173.428 28.6534L171.191 42H165.31L165.77 39.2642H165.617C165.157 39.929 164.615 40.4915 163.993 40.9517C163.38 41.4119 162.689 41.7571 161.922 41.9872C161.155 42.2173 160.316 42.3324 159.404 42.3324ZM162.037 38.2415C162.694 38.2415 163.316 38.1051 163.904 37.8324C164.492 37.5597 164.986 37.1847 165.387 36.7074C165.796 36.2216 166.056 35.6591 166.167 35.0199L166.461 33.1534C166.282 33.2472 166.056 33.3324 165.783 33.4091C165.51 33.4858 165.221 33.5582 164.914 33.6264C164.607 33.6861 164.292 33.7457 163.968 33.8054C163.652 33.8565 163.35 33.9034 163.06 33.946C162.446 34.0398 161.914 34.1847 161.462 34.3807C161.01 34.5767 160.648 34.8324 160.375 35.1477C160.111 35.4545 159.949 35.821 159.89 36.2472C159.787 36.8864 159.936 37.3807 160.337 37.7301C160.738 38.071 161.304 38.2415 162.037 38.2415ZM175.013 42L178.286 22.3636H184.358L183.757 25.9432H183.962C184.533 24.6477 185.279 23.6847 186.199 23.054C187.12 22.4148 188.117 22.0952 189.191 22.0952C189.48 22.0952 189.77 22.1165 190.06 22.1591C190.358 22.1932 190.64 22.2443 190.904 22.3125L189.983 27.7585C189.694 27.6477 189.314 27.5668 188.846 27.5156C188.377 27.456 187.951 27.4261 187.567 27.4261C186.826 27.4261 186.135 27.5923 185.496 27.9247C184.865 28.2486 184.328 28.7045 183.885 29.2926C183.451 29.8722 183.165 30.554 183.029 31.3381L181.265 42H175.013ZM198.274 42.3707C196.22 42.3707 194.515 41.9659 193.16 41.1562C191.814 40.3381 190.868 39.1747 190.322 37.6662C189.777 36.1491 189.679 34.3466 190.028 32.2585C190.369 30.2301 191.064 28.4574 192.112 26.9403C193.169 25.4148 194.498 24.2301 196.1 23.3864C197.703 22.5341 199.488 22.108 201.457 22.108C202.855 22.108 204.095 22.3253 205.177 22.7599C206.26 23.1946 207.154 23.8423 207.862 24.7031C208.569 25.5554 209.051 26.6037 209.306 27.848C209.562 29.0923 209.554 30.5199 209.281 32.1307L209.038 33.6903H191.984L192.559 30.0597H203.809C203.912 29.3949 203.856 28.8026 203.643 28.2827C203.43 27.7628 203.085 27.358 202.608 27.0682C202.139 26.7699 201.564 26.6207 200.882 26.6207C200.191 26.6207 199.544 26.7827 198.939 27.1065C198.342 27.4219 197.835 27.848 197.417 28.3849C197 28.9219 196.727 29.527 196.599 30.2003L195.922 33.9205C195.785 34.7472 195.824 35.4545 196.037 36.0426C196.25 36.6307 196.616 37.0824 197.136 37.3977C197.656 37.7045 198.325 37.858 199.143 37.858C199.689 37.858 200.2 37.7855 200.677 37.6406C201.154 37.4872 201.581 37.2614 201.956 36.9631C202.339 36.6562 202.65 36.2855 202.889 35.8509L208.591 36.017C208.13 37.304 207.419 38.4247 206.456 39.3793C205.493 40.3253 204.316 41.0625 202.927 41.5909C201.547 42.1108 199.995 42.3707 198.274 42.3707ZM237.352 25.304H231.036C231.07 24.6392 231.006 24.0469 230.844 23.527C230.683 22.9986 230.427 22.5469 230.077 22.1719C229.728 21.7884 229.293 21.4986 228.773 21.3026C228.254 21.1065 227.648 21.0085 226.958 21.0085C225.637 21.0085 224.44 21.3366 223.366 21.9929C222.292 22.6491 221.393 23.5952 220.668 24.831C219.944 26.0668 219.437 27.5497 219.147 29.2798C218.883 30.9503 218.887 32.3437 219.16 33.4602C219.441 34.5767 219.961 35.4162 220.719 35.9787C221.478 36.5327 222.441 36.8097 223.609 36.8097C224.367 36.8097 225.07 36.7202 225.718 36.5412C226.374 36.3537 226.967 36.0852 227.495 35.7358C228.023 35.3864 228.479 34.9645 228.863 34.4702C229.255 33.9673 229.558 33.4091 229.771 32.7955H236.137C235.822 33.946 235.302 35.0923 234.577 36.2344C233.862 37.3679 232.958 38.3949 231.867 39.3153C230.776 40.2358 229.511 40.973 228.07 41.527C226.63 42.081 225.028 42.358 223.263 42.358C220.852 42.358 218.772 41.8168 217.025 40.7344C215.286 39.652 214.029 38.0838 213.254 36.0298C212.487 33.9673 212.342 31.4702 212.819 28.5384C213.288 25.7003 214.212 23.3097 215.593 21.3665C216.982 19.4233 218.67 17.9531 220.656 16.956C222.65 15.9588 224.776 15.4602 227.035 15.4602C228.671 15.4602 230.141 15.6818 231.445 16.125C232.758 16.5597 233.87 17.1989 234.782 18.0426C235.694 18.8778 236.371 19.9048 236.815 21.1236C237.266 22.3423 237.445 23.7358 237.352 25.304ZM238.224 42L241.497 22.3636H247.748L244.475 42H238.224ZM245.064 20.0625C244.177 20.0625 243.457 19.7685 242.903 19.1804C242.349 18.5923 242.132 17.8892 242.251 17.071C242.37 16.2443 242.788 15.5412 243.504 14.9616C244.22 14.3821 245.017 14.0923 245.895 14.0923C246.781 14.0923 247.493 14.3821 248.029 14.9616C248.575 15.5412 248.788 16.2443 248.669 17.071C248.566 17.8892 248.157 18.5923 247.441 19.1804C246.734 19.7685 245.941 20.0625 245.064 20.0625ZM262.811 22.3636L262.031 26.9659H249.643L250.423 22.3636H262.811ZM253.786 17.6591H260.037L257.02 35.8253C256.96 36.2088 256.969 36.5199 257.045 36.7585C257.131 36.9886 257.284 37.1548 257.506 37.2571C257.736 37.3509 258.017 37.3977 258.349 37.3977C258.58 37.3977 258.835 37.3722 259.116 37.321C259.398 37.2699 259.611 37.2315 259.756 37.206L259.96 41.7188C259.628 41.8125 259.18 41.919 258.618 42.0384C258.064 42.1662 257.416 42.2472 256.675 42.2812C255.175 42.3409 253.935 42.1662 252.955 41.7571C251.983 41.3395 251.297 40.6918 250.896 39.8139C250.504 38.9361 250.428 37.8366 250.666 36.5156L253.786 17.6591ZM265.349 49.3636C264.599 49.3636 263.9 49.304 263.252 49.1847C262.613 49.0739 262.067 48.9247 261.616 48.7372L263.763 44.1989C264.335 44.4034 264.859 44.5185 265.336 44.544C265.822 44.5781 266.256 44.4972 266.64 44.3011C267.032 44.1136 267.373 43.777 267.663 43.2912L268.021 42.6903L264.428 22.3636H270.744L272.022 36.3878H272.227L278.235 22.3636H285.049L274.093 43.8793C273.539 44.9531 272.87 45.9034 272.086 46.7301C271.302 47.5568 270.356 48.2003 269.248 48.6605C268.148 49.1293 266.849 49.3636 265.349 49.3636Z" fill="black"/>
<ellipse cx="21.5" cy="29" rx="21.5" ry="22" fill="url(#paint0_linear_99_369)"/>
<path d="M25.7131 21.3594L20.0753 21.5128C20.0838 21.0952 19.9901 20.7287 19.794 20.4134C19.598 20.0895 19.321 19.8381 18.9631 19.6591C18.6051 19.4801 18.179 19.3906 17.6847 19.3906C16.8835 19.3906 16.1634 19.5696 15.5241 19.9276C14.8935 20.2855 14.5398 20.75 14.4631 21.321C14.4034 21.6278 14.4886 21.8963 14.7188 22.1264C14.9489 22.348 15.4602 22.544 16.2528 22.7145L19.9347 23.4304C21.8267 23.8054 23.1989 24.4574 24.0511 25.3864C24.9119 26.3068 25.2188 27.5256 24.9716 29.0426C24.75 30.3381 24.179 31.4588 23.2585 32.4048C22.3466 33.3509 21.1832 34.0838 19.7685 34.6037C18.3622 35.1151 16.8068 35.3707 15.1023 35.3707C12.2216 35.3707 10.0483 34.7912 8.58239 33.6321C7.125 32.4645 6.44318 30.9176 6.53693 28.9915L12.6222 28.8381C12.6477 29.5625 12.8906 30.108 13.3509 30.4744C13.8196 30.8324 14.4545 31.0199 15.2557 31.0369C16.1335 31.054 16.892 30.8707 17.5312 30.4872C18.1705 30.1037 18.5284 29.6307 18.6051 29.0682C18.6563 28.7017 18.5327 28.4162 18.2344 28.2116C17.9446 28.0071 17.4034 27.8239 16.6108 27.6619L13.2869 27.0099C11.3778 26.6435 9.99716 25.9531 9.14489 24.9389C8.30114 23.9162 8.01136 22.6122 8.27557 21.027C8.49716 19.7656 9.01705 18.696 9.83523 17.8182C10.6619 16.9318 11.7401 16.2585 13.0696 15.7983C14.4077 15.3381 15.9332 15.108 17.6463 15.108C20.3906 15.108 22.4616 15.6662 23.8594 16.7827C25.2656 17.8906 25.8835 19.4162 25.7131 21.3594Z" fill="url(#paint1_linear_99_369)"/>
<path d="M27.358 41.3835C25.3381 41.3835 23.6761 40.9574 22.3722 40.1051C21.0767 39.2443 20.169 38.0511 19.6491 36.5256C19.1378 35 19.0483 33.2443 19.3807 31.2585C19.7045 29.2472 20.3821 27.483 21.4134 25.9659C22.4446 24.4403 23.7528 23.2514 25.3381 22.3991C26.9318 21.5384 28.7216 21.108 30.7074 21.108C32.4205 21.108 33.8693 21.419 35.054 22.0412C36.2386 22.6634 37.108 23.5369 37.6619 24.6619C38.2159 25.7869 38.4034 27.108 38.2244 28.625H33.098C33.1065 27.6534 32.8551 26.8651 32.3438 26.2599C31.8324 25.6548 31.0824 25.3523 30.0938 25.3523C29.2415 25.3523 28.4574 25.5824 27.7415 26.0426C27.0341 26.4943 26.4332 27.1548 25.9389 28.0241C25.4531 28.8935 25.1122 29.946 24.9162 31.1818C24.7116 32.4347 24.7074 33.5 24.9034 34.3778C25.0994 35.2557 25.4744 35.9247 26.0284 36.3849C26.5824 36.8452 27.2812 37.0753 28.125 37.0753C28.7557 37.0753 29.3395 36.9474 29.8764 36.6918C30.4219 36.4361 30.8991 36.0653 31.3082 35.5795C31.7173 35.0852 32.0327 34.4929 32.2543 33.8026H37.3935C37.044 35.3111 36.4091 36.6321 35.4886 37.7656C34.5767 38.8991 33.4304 39.7855 32.0497 40.4247C30.669 41.0639 29.1051 41.3835 27.358 41.3835Z" fill="url(#paint2_linear_99_369)"/>
<defs>
<linearGradient id="paint0_linear_99_369" x1="21.5" y1="7" x2="21.5" y2="51" gradientUnits="userSpaceOnUse">
<stop stop-color="#45BA5E"/>
<stop offset="0.485" stop-color="#3FA956"/>
<stop offset="0.52" stop-color="#010A01" stop-opacity="0.9"/>
<stop offset="0.5201" stop-color="#010A01" stop-opacity="0.9"/>
<stop offset="0.585" stop-color="#010A01" stop-opacity="0.9"/>
</linearGradient>
<linearGradient id="paint1_linear_99_369" x1="16.5" y1="0" x2="16.5" y2="44" gradientUnits="userSpaceOnUse">
<stop stop-color="#040101"/>
<stop offset="0.565"/>
<stop offset="0.685" stop-color="#44B75D"/>
<stop offset="1" stop-color="#44B75D"/>
</linearGradient>
<linearGradient id="paint2_linear_99_369" x1="29" y1="6" x2="29" y2="50" gradientUnits="userSpaceOnUse">
<stop stop-color="#165311"/>
<stop offset="0.48"/>
<stop offset="0.61" stop-color="#44B75D"/>
</linearGradient>
</defs>
</svg>
