<svg width="648" height="458" viewBox="0 0 648 458" fill="none" xmlns="http://www.w3.org/2000/svg">
<g filter="url(#filter0_d_82_341)">
<path d="M148 448C68.5 448 4 383.5 4 304C4 241.2 44.2 187.8 100.2 168.1C100.1 165.4 100 162.7 100 160C100 71.6 171.6 0 260 0C319.3 0 371 32.2 398.7 80.2C413.9 70 432.3 64 452 64C505 64 548 107 548 160C548 172.2 545.7 183.8 541.6 194.6C600 206.4 644 258.1 644 320C644 390.7 586.7 448 516 448H148ZM227 231C217.6 240.4 217.6 255.6 227 264.9C236.4 274.2 251.6 274.3 260.9 264.9L299.9 225.9L300 360C300 373.3 310.7 384 324 384C337.3 384 348 373.3 348 360V225.9L387 264.9C396.4 274.3 411.6 274.3 420.9 264.9C430.2 255.5 430.3 240.3 420.9 231L340.9 151C331.5 141.6 316.3 141.6 307 151L227 231Z" fill="white"/>
<path d="M222.78 269.165C210.994 257.505 211.027 238.488 222.757 226.757L302.735 146.78C302.739 146.776 302.744 146.771 302.748 146.766C314.41 134.994 333.417 135.031 345.143 146.757L425.12 226.735C425.124 226.739 425.129 226.744 425.134 226.748C436.935 238.439 436.732 257.428 425.165 269.12C413.505 280.906 394.488 280.873 382.757 269.143L354 240.385V360C354 376.614 340.614 390 324 390C307.388 390 294.002 376.616 294 360.004L222.78 269.165ZM222.78 269.165C234.471 280.732 253.46 280.935 265.15 269.135C265.155 269.13 265.16 269.125 265.165 269.12L293.911 240.374M222.78 269.165L293.911 240.374M293.911 240.374L294 360L293.911 240.374ZM102.191 173.76L106.359 172.294L106.196 167.878C106.095 165.159 106 162.57 106 160C106 74.9137 174.914 6 260 6C317.068 6 366.83 36.9786 393.503 83.199L396.712 88.7596L402.043 85.1822C416.288 75.6234 433.53 70 452 70C501.686 70 542 110.314 542 160C542 171.434 539.846 182.314 535.991 192.471L533.481 199.081L540.412 200.481C596.064 211.726 638 261.008 638 320C638 387.386 583.386 442 516 442H148C71.8137 442 10 380.186 10 304C10 243.825 48.5175 192.642 102.191 173.76Z" stroke="#29C665" stroke-width="12"/>
</g>
<defs>
<filter id="filter0_d_82_341" x="0" y="0" width="648" height="458" filterUnits="userSpaceOnUse" color-interpolation-filters="sRGB">
<feFlood flood-opacity="0" result="BackgroundImageFix"/>
<feColorMatrix in="SourceAlpha" type="matrix" values="0 0 0 0 0 0 0 0 0 0 0 0 0 0 0 0 0 0 127 0" result="hardAlpha"/>
<feOffset dy="6"/>
<feGaussianBlur stdDeviation="2"/>
<feComposite in2="hardAlpha" operator="out"/>
<feColorMatrix type="matrix" values="0 0 0 0 0 0 0 0 0 0 0 0 0 0 0 0 0 0 0.25 0"/>
<feBlend mode="normal" in2="BackgroundImageFix" result="effect1_dropShadow_82_341"/>
<feBlend mode="normal" in="SourceGraphic" in2="effect1_dropShadow_82_341" result="shape"/>
</filter>
</defs>
</svg>
