<?xml version="1.0" ?><svg data-name="Layer 1" id="Layer_1" viewBox="0 0 32 32" xmlns="http://www.w3.org/2000/svg"><defs><style>.cls-1{fill:#f43b33;}</style></defs><title/><path class="cls-1" d="M21.36,7.6h.3a9.41,9.41,0,0,0-11.39,0H21.36Z"/><path class="cls-1" d="M10.57,25.71h-.3a9.45,9.45,0,0,0,11.39,0H10.57Z"/><path class="cls-1" d="M5.88,16.66a11.25,11.25,0,0,1,4.39-9A5.87,5.87,0,0,0,5,13.66v6a5.88,5.88,0,0,0,5.27,6.05A11.27,11.27,0,0,1,5.88,16.66Z"/><path class="cls-1" d="M21.66,7.61a11.25,11.25,0,0,1,4.39,9.05,11.27,11.27,0,0,1-4.39,9.05,5.87,5.87,0,0,0,5.27-6.05v-6A5.86,5.86,0,0,0,21.66,7.61Z"/><polygon class="cls-1" points="15.03 16.56 10.12 16.64 10.12 13.49 15.03 12.27 15.03 16.56"/><polygon class="cls-1" points="21.81 16.45 15.46 16.56 15.46 12.27 21.81 10.66 21.81 16.45"/><polygon class="cls-1" points="15.03 21.16 10.12 20.01 10.12 16.86 15.03 16.86 15.03 21.16"/><polygon class="cls-1" points="21.81 22.65 15.46 21.16 15.46 16.86 21.81 16.86 21.81 22.65"/></svg>